<?xml version="1.0" encoding="us-ascii" standalone="no"?><svg xmlns="http://www.w3.org/2000/svg" xmlns:xlink="http://www.w3.org/1999/xlink" contentStyleType="text/css" height="1381px" preserveAspectRatio="none" style="width:2784px;height:1381px;background:#FFFFFF;" version="1.1" viewBox="0 0 2784 1381" width="2784px" zoomAndPan="magnify"><defs/><g><!--cluster Controller--><g id="cluster_Controller"><polygon fill="none" points="163.36,121,250.36,121,257.36,143.2969,677.36,143.2969,677.36,641,163.36,641,163.36,121" style="stroke:#000000;stroke-width:1.5;"/><line style="stroke:#000000;stroke-width:1.5;" x1="163.36" x2="257.36" y1="143.2969" y2="143.2969"/><text fill="#000000" font-family="sans-serif" font-size="14" font-weight="bold" lengthAdjust="spacing" textLength="81" x="167.36" y="135.9951">Controller</text></g><!--cluster java--><g id="cluster_java"><polygon fill="none" points="2033.36,1211,2071.36,1211,2078.36,1233.2969,2161.36,1233.2969,2161.36,1374,2033.36,1374,2033.36,1211" style="stroke:#000000;stroke-width:1.5;"/><line style="stroke:#000000;stroke-width:1.5;" x1="2033.36" x2="2078.36" y1="1233.2969" y2="1233.2969"/><text fill="#000000" font-family="sans-serif" font-size="14" font-weight="bold" lengthAdjust="spacing" textLength="32" x="2037.36" y="1225.9951">java</text></g><!--cluster awt--><g id="cluster_awt"><polygon fill="none" points="2057.36,1254,2092.36,1254,2099.36,1276.2969,2137.36,1276.2969,2137.36,1350,2057.36,1350,2057.36,1254" style="stroke:#000000;stroke-width:1.5;"/><line style="stroke:#000000;stroke-width:1.5;" x1="2057.36" x2="2099.36" y1="1276.2969" y2="1276.2969"/><text fill="#000000" font-family="sans-serif" font-size="14" font-weight="bold" lengthAdjust="spacing" textLength="29" x="2061.36" y="1268.9951">awt</text></g><!--cluster Model--><g id="cluster_Model"><polygon fill="none" points="701.36,394,756.36,394,763.36,416.2969,2009.36,416.2969,2009.36,1362.5,701.36,1362.5,701.36,394" style="stroke:#000000;stroke-width:1.5;"/><line style="stroke:#000000;stroke-width:1.5;" x1="701.36" x2="763.36" y1="416.2969" y2="416.2969"/><text fill="#000000" font-family="sans-serif" font-size="14" font-weight="bold" lengthAdjust="spacing" textLength="49" x="705.36" y="408.9951">Model</text></g><!--cluster View--><g id="cluster_View"><polygon fill="none" points="2196.36,459.5,2241.36,459.5,2248.36,481.7969,2711.36,481.7969,2711.36,1139,2196.36,1139,2196.36,459.5" style="stroke:#000000;stroke-width:1.5;"/><line style="stroke:#000000;stroke-width:1.5;" x1="2196.36" x2="2248.36" y1="481.7969" y2="481.7969"/><text fill="#000000" font-family="sans-serif" font-size="14" font-weight="bold" lengthAdjust="spacing" textLength="39" x="2200.36" y="474.4951">View</text></g><!--class JeuController--><g id="elem_JeuController"><rect codeLine="10" fill="#F1F1F1" height="156.375" id="JeuController" rx="2.5" ry="2.5" style="stroke:#181818;stroke-width:0.5;" width="322" x="339.36" y="175"/><text fill="#000000" font-family="sans-serif" font-size="14" font-weight="bold" lengthAdjust="spacing" textLength="106" x="447.36" y="192.9951">JeuController</text><line style="stroke:#181818;stroke-width:0.5;" x1="340.36" x2="660.36" y1="201.2969" y2="201.2969"/><text fill="#000000" font-family="sans-serif" font-size="14" lengthAdjust="spacing" textLength="62" x="345.36" y="218.292">-jeu : Jeu</text><line style="stroke:#181818;stroke-width:0.5;" x1="340.36" x2="660.36" y1="225.5938" y2="225.5938"/><text fill="#000000" font-family="sans-serif" font-size="14" lengthAdjust="spacing" textLength="172" x="345.36" y="242.5889">+JeuController(jeu : Jeu)</text><text fill="#000000" font-family="sans-serif" font-size="14" lengthAdjust="spacing" textLength="270" x="345.36" y="258.8857">+setNbManches(nbManches : Integer)</text><text fill="#000000" font-family="sans-serif" font-size="14" lengthAdjust="spacing" textLength="310" x="345.36" y="275.1826">+setNbPionsCombi(nbPionsCombi : Integer)</text><text fill="#000000" font-family="sans-serif" font-size="14" lengthAdjust="spacing" textLength="290" x="345.36" y="291.4795">+setNbPionsTotal(nbPionsTotal : Integer)</text><text fill="#000000" font-family="sans-serif" font-size="14" lengthAdjust="spacing" textLength="292" x="345.36" y="307.7764">+setNbTentatives(nbTentatives : Integer)</text><text fill="#000000" font-family="sans-serif" font-size="14" lengthAdjust="spacing" textLength="84" x="345.36" y="324.0732">+setScore()</text></g><!--class MancheController--><g id="elem_MancheController"><rect codeLine="20" fill="#F1F1F1" height="115.7813" id="MancheController" rx="2.5" ry="2.5" style="stroke:#181818;stroke-width:0.5;" width="481" x="179.86" y="509"/><text fill="#000000" font-family="sans-serif" font-size="14" font-weight="bold" lengthAdjust="spacing" textLength="142" x="349.36" y="526.9951">MancheController</text><line style="stroke:#181818;stroke-width:0.5;" x1="180.86" x2="659.86" y1="535.2969" y2="535.2969"/><text fill="#000000" font-family="sans-serif" font-size="14" lengthAdjust="spacing" textLength="276" x="185.86" y="552.292">+MancheController(manche : Manche)</text><text fill="#000000" font-family="sans-serif" font-size="14" lengthAdjust="spacing" textLength="354" x="185.86" y="568.5889">+genererCombinaisonSecrete(manche : Manche)</text><text fill="#000000" font-family="sans-serif" font-size="14" lengthAdjust="spacing" textLength="469" x="185.86" y="584.8857">+genererIndices(contexte : JeuPrintStrategy, tentative : Tentative)</text><text fill="#000000" font-family="sans-serif" font-size="14" lengthAdjust="spacing" textLength="381" x="185.86" y="601.1826">+verifierCombinaison(tentative : Tentative) : Boolean</text><text fill="#000000" font-family="sans-serif" font-size="14" lengthAdjust="spacing" textLength="263" x="185.86" y="617.4795">+calculerScore(tentative : Tentative)</text></g><!--class Color--><g id="elem_Color"><rect codeLine="31" fill="#F1F1F1" height="26.2969" id="Color" rx="2.5" ry="2.5" style="stroke:#181818;stroke-width:0.5;" width="48" x="2073.36" y="1308"/><text fill="#000000" font-family="sans-serif" font-size="14" font-weight="bold" lengthAdjust="spacing" textLength="42" x="2076.36" y="1325.9951">Color</text></g><!--class Jeu--><g id="elem_Jeu"><rect codeLine="36" fill="#F1F1F1" height="400.8281" id="Jeu" rx="2.5" ry="2.5" style="stroke:#181818;stroke-width:0.5;" width="322" x="1374.36" y="763"/><text fill="#000000" font-family="sans-serif" font-size="14" font-weight="bold" lengthAdjust="spacing" textLength="25" x="1522.86" y="780.9951">Jeu</text><line style="stroke:#181818;stroke-width:0.5;" x1="1375.36" x2="1695.36" y1="789.2969" y2="789.2969"/><text fill="#000000" font-family="sans-serif" font-size="14" lengthAdjust="spacing" textLength="150" x="1380.36" y="806.292">-nbManches : Integer</text><text fill="#000000" font-family="sans-serif" font-size="14" lengthAdjust="spacing" textLength="170" x="1380.36" y="822.5889">-nbPionsCombi : Integer</text><text fill="#000000" font-family="sans-serif" font-size="14" lengthAdjust="spacing" textLength="160" x="1380.36" y="838.8857">-nbPionsTotal : Integer</text><text fill="#000000" font-family="sans-serif" font-size="14" lengthAdjust="spacing" textLength="161" x="1380.36" y="855.1826">-nbTentatives : Integer</text><text fill="#000000" font-family="sans-serif" font-size="14" lengthAdjust="spacing" textLength="108" x="1380.36" y="871.4795">-score : Integer</text><text fill="#000000" font-family="sans-serif" font-size="14" lengthAdjust="spacing" textLength="121" x="1380.36" y="887.7764">-ModeJeu : String</text><line style="stroke:#181818;stroke-width:0.5;" x1="1375.36" x2="1695.36" y1="895.0781" y2="895.0781"/><text fill="#000000" font-family="sans-serif" font-size="14" lengthAdjust="spacing" textLength="44" x="1380.36" y="912.0732">+Jeu()</text><text fill="#000000" font-family="sans-serif" font-size="14" lengthAdjust="spacing" textLength="236" x="1380.36" y="928.3701">+getContexte() : JeuPrintStrategy</text><text fill="#000000" font-family="sans-serif" font-size="14" lengthAdjust="spacing" textLength="191" x="1380.36" y="944.667">+getNbManches() : Integer</text><text fill="#000000" font-family="sans-serif" font-size="14" lengthAdjust="spacing" textLength="211" x="1380.36" y="960.9639">+getNbPionsCombi() : Integer</text><text fill="#000000" font-family="sans-serif" font-size="14" lengthAdjust="spacing" textLength="201" x="1380.36" y="977.2607">+getNbPionsTotal() : Integer</text><text fill="#000000" font-family="sans-serif" font-size="14" lengthAdjust="spacing" textLength="202" x="1380.36" y="993.5576">+getNbTentatives() : Integer</text><text fill="#000000" font-family="sans-serif" font-size="14" lengthAdjust="spacing" textLength="150" x="1380.36" y="1009.8545">+getScore() : Integer</text><text fill="#000000" font-family="sans-serif" font-size="14" lengthAdjust="spacing" textLength="161" x="1380.36" y="1026.1514">+getModeJeu() : String</text><text fill="#000000" font-family="sans-serif" font-size="14" lengthAdjust="spacing" textLength="296" x="1380.36" y="1042.4482">+setContexte(contexte : JeuPrintStrategy)</text><text fill="#000000" font-family="sans-serif" font-size="14" lengthAdjust="spacing" textLength="270" x="1380.36" y="1058.7451">+setNbManches(nbManches : Integer)</text><text fill="#000000" font-family="sans-serif" font-size="14" lengthAdjust="spacing" textLength="310" x="1380.36" y="1075.042">+setNbPionsCombi(nbPionsCombi : Integer)</text><text fill="#000000" font-family="sans-serif" font-size="14" lengthAdjust="spacing" textLength="290" x="1380.36" y="1091.3389">+setNbPionsTotal(nbPionsTotal : Integer)</text><text fill="#000000" font-family="sans-serif" font-size="14" lengthAdjust="spacing" textLength="292" x="1380.36" y="1107.6357">+setNbTentatives(nbTentatives : Integer)</text><text fill="#000000" font-family="sans-serif" font-size="14" lengthAdjust="spacing" textLength="182" x="1380.36" y="1123.9326">+setModeJeu(md : String)</text><text fill="#000000" font-family="sans-serif" font-size="14" lengthAdjust="spacing" textLength="261" x="1380.36" y="1140.2295">+addJeuObserver(obs : JeuObserver)</text><text fill="#000000" font-family="sans-serif" font-size="14" lengthAdjust="spacing" textLength="149" x="1380.36" y="1156.5264">+notifyJeuObserver()</text></g><!--class Manche--><g id="elem_Manche"><rect codeLine="63" fill="#F1F1F1" height="237.8594" id="Manche" rx="2.5" ry="2.5" style="stroke:#181818;stroke-width:0.5;" width="422" x="974.36" y="448"/><text fill="#000000" font-family="sans-serif" font-size="14" font-weight="bold" lengthAdjust="spacing" textLength="61" x="1154.86" y="465.9951">Manche</text><line style="stroke:#181818;stroke-width:0.5;" x1="975.36" x2="1395.36" y1="474.2969" y2="474.2969"/><text fill="#000000" font-family="sans-serif" font-size="14" lengthAdjust="spacing" textLength="108" x="980.36" y="491.292">-score : Integer</text><text fill="#000000" font-family="sans-serif" font-size="14" lengthAdjust="spacing" textLength="231" x="980.36" y="507.5889">-nbTentativesRestantes : Integer</text><line style="stroke:#181818;stroke-width:0.5;" x1="975.36" x2="1395.36" y1="514.8906" y2="514.8906"/><text fill="#000000" font-family="sans-serif" font-size="14" lengthAdjust="spacing" textLength="135" x="980.36" y="531.8857">+Manche(jeu : Jeu)</text><text fill="#000000" font-family="sans-serif" font-size="14" lengthAdjust="spacing" textLength="273" x="980.36" y="548.1826">+addObserver(obs : MancheObserver)</text><text fill="#000000" font-family="sans-serif" font-size="14" lengthAdjust="spacing" textLength="127" x="980.36" y="564.4795">+notifyObserver()</text><text fill="#000000" font-family="sans-serif" font-size="14" lengthAdjust="spacing" textLength="121" x="980.36" y="580.7764">+getPartie() : Jeu</text><text fill="#000000" font-family="sans-serif" font-size="14" lengthAdjust="spacing" textLength="252" x="980.36" y="597.0732">+getcombinaisonSecrete() : Color[]</text><text fill="#000000" font-family="sans-serif" font-size="14" lengthAdjust="spacing" textLength="301" x="980.36" y="613.3701">+setCombanaisonSecrete(combi : Color[])</text><text fill="#000000" font-family="sans-serif" font-size="14" lengthAdjust="spacing" textLength="272" x="980.36" y="629.667">+getNbTentativesRestantes() : Integer</text><text fill="#000000" font-family="sans-serif" font-size="14" lengthAdjust="spacing" textLength="150" x="980.36" y="645.9639">+getScore() : Integer</text><text fill="#000000" font-family="sans-serif" font-size="14" lengthAdjust="spacing" textLength="410" x="980.36" y="662.2607">+setNbTentativesRestantes(tentativesRestantes : Integer)</text><text fill="#000000" font-family="sans-serif" font-size="14" lengthAdjust="spacing" textLength="187" x="980.36" y="678.5576">+setScore(score : Integer)</text></g><!--class Tentative--><g id="elem_Tentative"><rect codeLine="80" fill="#F1F1F1" height="270.4531" id="Tentative" rx="2.5" ry="2.5" style="stroke:#181818;stroke-width:0.5;" width="261" x="1731.86" y="828.5"/><text fill="#000000" font-family="sans-serif" font-size="14" font-weight="bold" lengthAdjust="spacing" textLength="77" x="1823.86" y="846.4951">Tentative</text><line style="stroke:#181818;stroke-width:0.5;" x1="1732.86" x2="1991.86" y1="854.7969" y2="854.7969"/><text fill="#000000" font-family="sans-serif" font-size="14" lengthAdjust="spacing" textLength="113" x="1737.86" y="871.792">-nbAbs : Integer</text><text fill="#000000" font-family="sans-serif" font-size="14" lengthAdjust="spacing" textLength="121" x="1737.86" y="888.0889">-nbFaux : Integer</text><text fill="#000000" font-family="sans-serif" font-size="14" lengthAdjust="spacing" textLength="123" x="1737.86" y="904.3857">-nbVrais : Integer</text><text fill="#000000" font-family="sans-serif" font-size="14" lengthAdjust="spacing" textLength="67" x="1737.86" y="920.6826">+setFaux</text><text fill="#000000" font-family="sans-serif" font-size="14" lengthAdjust="spacing" textLength="69" x="1737.86" y="936.9795">+setVrais</text><line style="stroke:#181818;stroke-width:0.5;" x1="1732.86" x2="1991.86" y1="944.2813" y2="944.2813"/><text fill="#000000" font-family="sans-serif" font-size="14" lengthAdjust="spacing" textLength="216" x="1737.86" y="961.2764">+Tentative(manche : Manche)</text><text fill="#000000" font-family="sans-serif" font-size="14" lengthAdjust="spacing" textLength="249" x="1737.86" y="977.5732">+getCombinaisonTentee() : Color[]</text><text fill="#000000" font-family="sans-serif" font-size="14" lengthAdjust="spacing" textLength="223" x="1737.86" y="993.8701">+getIndicesTentative() : Color[]</text><text fill="#000000" font-family="sans-serif" font-size="14" lengthAdjust="spacing" textLength="135" x="1737.86" y="1010.167">+getAbs() : Integer</text><text fill="#000000" font-family="sans-serif" font-size="14" lengthAdjust="spacing" textLength="143" x="1737.86" y="1026.4639">+getFaux() : Integer</text><text fill="#000000" font-family="sans-serif" font-size="14" lengthAdjust="spacing" textLength="145" x="1737.86" y="1042.7607">+getVrais() : Integer</text><text fill="#000000" font-family="sans-serif" font-size="14" lengthAdjust="spacing" textLength="247" x="1737.86" y="1059.0576">+setCombinaisonTentee() : Color[]</text><text fill="#000000" font-family="sans-serif" font-size="14" lengthAdjust="spacing" textLength="221" x="1737.86" y="1075.3545">+setIndicesTentative() : Color[]</text><text fill="#000000" font-family="sans-serif" font-size="14" lengthAdjust="spacing" textLength="69" x="1737.86" y="1091.6514">+setAbs()</text></g><!--class JeuObserver--><g id="elem_JeuObserver"><rect codeLine="101" fill="#F1F1F1" height="50.5938" id="JeuObserver" rx="2.5" ry="2.5" style="stroke:#181818;stroke-width:0.5;" width="104" x="1886.36" y="541.5"/><text fill="#000000" font-family="sans-serif" font-size="14" font-style="italic" font-weight="bold" lengthAdjust="spacing" textLength="98" x="1889.36" y="559.4951">JeuObserver</text><line style="stroke:#181818;stroke-width:0.5;" x1="1887.36" x2="1989.36" y1="567.7969" y2="567.7969"/><text fill="#000000" font-family="sans-serif" font-size="14" lengthAdjust="spacing" textLength="73" x="1892.36" y="584.792">+Update()</text></g><!--class MancheObserver--><g id="elem_MancheObserver"><rect codeLine="104" fill="#F1F1F1" height="50.5938" id="MancheObserver" rx="2.5" ry="2.5" style="stroke:#181818;stroke-width:0.5;" width="140" x="1498.36" y="541.5"/><text fill="#000000" font-family="sans-serif" font-size="14" font-style="italic" font-weight="bold" lengthAdjust="spacing" textLength="134" x="1501.36" y="559.4951">MancheObserver</text><line style="stroke:#181818;stroke-width:0.5;" x1="1499.36" x2="1637.36" y1="567.7969" y2="567.7969"/><text fill="#000000" font-family="sans-serif" font-size="14" lengthAdjust="spacing" textLength="73" x="1504.36" y="584.792">+Update()</text></g><!--class JeuPrintStrategy--><g id="elem_JeuPrintStrategy"><rect codeLine="108" fill="#F1F1F1" height="50.5938" id="JeuPrintStrategy" rx="2.5" ry="2.5" style="stroke:#181818;stroke-width:0.5;" width="402" x="937.36" y="938"/><text fill="#000000" font-family="sans-serif" font-size="14" font-style="italic" font-weight="bold" lengthAdjust="spacing" textLength="133" x="1071.86" y="955.9951">JeuPrintStrategy</text><line style="stroke:#181818;stroke-width:0.5;" x1="938.36" x2="1338.36" y1="964.2969" y2="964.2969"/><text fill="#000000" font-family="sans-serif" font-size="14" lengthAdjust="spacing" textLength="390" x="943.36" y="981.292">+affichIndices(manche : Manche, tentative : Tentative)</text></g><!--class EasyPrint--><g id="elem_EasyPrint"><rect codeLine="112" fill="#F1F1F1" height="50.5938" id="EasyPrint" rx="2.5" ry="2.5" style="stroke:#181818;stroke-width:0.5;" width="402" x="717.36" y="1295.5"/><text fill="#000000" font-family="sans-serif" font-size="14" font-weight="bold" lengthAdjust="spacing" textLength="75" x="880.86" y="1313.4951">EasyPrint</text><line style="stroke:#181818;stroke-width:0.5;" x1="718.36" x2="1118.36" y1="1321.7969" y2="1321.7969"/><text fill="#000000" font-family="sans-serif" font-size="14" lengthAdjust="spacing" textLength="390" x="723.36" y="1338.792">+affichIndices(manche : Manche, tentative : Tentative)</text></g><!--class ClassicPrint--><g id="elem_ClassicPrint"><rect codeLine="115" fill="#F1F1F1" height="50.5938" id="ClassicPrint" rx="2.5" ry="2.5" style="stroke:#181818;stroke-width:0.5;" width="402" x="1154.36" y="1295.5"/><text fill="#000000" font-family="sans-serif" font-size="14" font-weight="bold" lengthAdjust="spacing" textLength="92" x="1309.36" y="1313.4951">ClassicPrint</text><line style="stroke:#181818;stroke-width:0.5;" x1="1155.36" x2="1555.36" y1="1321.7969" y2="1321.7969"/><text fill="#000000" font-family="sans-serif" font-size="14" lengthAdjust="spacing" textLength="390" x="1160.36" y="1338.792">+affichIndices(manche : Manche, tentative : Tentative)</text></g><!--class NumericPrint--><g id="elem_NumericPrint"><rect codeLine="118" fill="#F1F1F1" height="50.5938" id="NumericPrint" rx="2.5" ry="2.5" style="stroke:#181818;stroke-width:0.5;" width="402" x="1591.36" y="1295.5"/><text fill="#000000" font-family="sans-serif" font-size="14" font-weight="bold" lengthAdjust="spacing" textLength="106" x="1739.36" y="1313.4951">NumericPrint</text><line style="stroke:#181818;stroke-width:0.5;" x1="1592.36" x2="1992.36" y1="1321.7969" y2="1321.7969"/><text fill="#000000" font-family="sans-serif" font-size="14" lengthAdjust="spacing" textLength="390" x="1597.36" y="1338.792">+affichIndices(manche : Manche, tentative : Tentative)</text></g><!--class JeuWindow--><g id="elem_JeuWindow"><rect codeLine="126" fill="#F1F1F1" height="319.3438" id="JeuWindow" rx="2.5" ry="2.5" style="stroke:#181818;stroke-width:0.5;" width="376" x="2212.36" y="804"/><text fill="#000000" font-family="sans-serif" font-size="14" font-weight="bold" lengthAdjust="spacing" textLength="88" x="2356.36" y="821.9951">JeuWindow</text><line style="stroke:#181818;stroke-width:0.5;" x1="2213.36" x2="2587.36" y1="830.2969" y2="830.2969"/><text fill="#000000" font-family="sans-serif" font-size="14" lengthAdjust="spacing" textLength="62" x="2218.36" y="847.292">-jeu : Jeu</text><text fill="#000000" font-family="sans-serif" font-size="14" lengthAdjust="spacing" textLength="267" x="2218.36" y="863.5889">-controller : JeuController {readOnly}</text><text fill="#000000" font-family="sans-serif" font-size="14" lengthAdjust="spacing" textLength="132" x="2218.36" y="879.8857">-manche : Manche</text><text fill="#000000" font-family="sans-serif" font-size="14" lengthAdjust="spacing" textLength="274" x="2218.36" y="896.1826">-mancheController : MancheController</text><text fill="#000000" font-family="sans-serif" font-size="14" lengthAdjust="spacing" textLength="151" x="2218.36" y="912.4795">-couleurTemp : Color</text><text fill="#000000" font-family="sans-serif" font-size="14" lengthAdjust="spacing" textLength="219" x="2218.36" y="928.7764">-nbTentativeEffectuer : Integer</text><text fill="#000000" font-family="sans-serif" font-size="14" lengthAdjust="spacing" textLength="116" x="2218.36" y="945.0732">-nbMancheJouer</text><line style="stroke:#181818;stroke-width:0.5;" x1="2213.36" x2="2587.36" y1="952.375" y2="952.375"/><text fill="#000000" font-family="sans-serif" font-size="14" lengthAdjust="spacing" textLength="364" x="2218.36" y="969.3701">+JeuWindow(jeu : Jeu, jeuController : JeuController)</text><text fill="#000000" font-family="sans-serif" font-size="14" lengthAdjust="spacing" textLength="61" x="2218.36" y="985.667">+Menu()</text><text fill="#000000" font-family="sans-serif" font-size="14" lengthAdjust="spacing" textLength="69" x="2218.36" y="1001.9639">+Option()</text><text fill="#000000" font-family="sans-serif" font-size="14" lengthAdjust="spacing" textLength="63" x="2218.36" y="1018.2607">+game()</text><text fill="#000000" font-family="sans-serif" font-size="14" lengthAdjust="spacing" textLength="73" x="2218.36" y="1034.5576">+Update()</text><text fill="#000000" font-family="sans-serif" font-size="14" lengthAdjust="spacing" textLength="288" x="2218.36" y="1050.8545">+ValiderTentative(Container Mainpanel)</text><text fill="#000000" font-family="sans-serif" font-size="14" lengthAdjust="spacing" textLength="110" x="2218.36" y="1067.1514">+StopManche()</text><text fill="#000000" font-family="sans-serif" font-size="14" lengthAdjust="spacing" textLength="43" x="2218.36" y="1083.4482">+Fin()</text><text fill="#000000" font-family="sans-serif" font-size="14" lengthAdjust="spacing" textLength="86" x="2218.36" y="1099.7451">+Relancer()</text><text fill="#000000" font-family="sans-serif" font-size="14" lengthAdjust="spacing" textLength="90" x="2218.36" y="1116.042">+FinMache()</text></g><!--class JFrame--><g id="elem_JFrame"><rect fill="#F1F1F1" height="26.2969" id="JFrame" rx="2.5" ry="2.5" style="stroke:#181818;stroke-width:0.5;" width="62" x="2633.36" y="554"/><text fill="#000000" font-family="sans-serif" font-size="14" font-weight="bold" lengthAdjust="spacing" textLength="56" x="2636.36" y="571.9951">JFrame</text></g><!--class JeuTextuelle--><g id="elem_JeuTextuelle"><rect codeLine="146" fill="#F1F1F1" height="107.4844" id="JeuTextuelle" rx="2.5" ry="2.5" style="stroke:#181818;stroke-width:0.5;" width="386" x="2212.36" y="513.5"/><text fill="#000000" font-family="sans-serif" font-size="14" font-weight="bold" lengthAdjust="spacing" textLength="101" x="2354.86" y="531.4951">JeuTextuelle</text><line style="stroke:#181818;stroke-width:0.5;" x1="2213.36" x2="2597.36" y1="539.7969" y2="539.7969"/><text fill="#000000" font-family="sans-serif" font-size="14" lengthAdjust="spacing" textLength="62" x="2218.36" y="556.792">-jeu : Jeu</text><text fill="#000000" font-family="sans-serif" font-size="14" lengthAdjust="spacing" textLength="204" x="2218.36" y="573.0889">-jeuController : JeuController</text><line style="stroke:#181818;stroke-width:0.5;" x1="2213.36" x2="2597.36" y1="580.3906" y2="580.3906"/><text fill="#000000" font-family="sans-serif" font-size="14" lengthAdjust="spacing" textLength="374" x="2218.36" y="597.3857">+JeuTextuelle(jeu : Jeu, jeuController : JeuController)</text><text fill="#000000" font-family="sans-serif" font-size="14" lengthAdjust="spacing" textLength="73" x="2218.36" y="613.6826">+Update()</text></g><!--class MasterMind--><g id="elem_MasterMind"><rect codeLine="154" fill="#F1F1F1" height="50.5938" id="MasterMind" rx="2.5" ry="2.5" style="stroke:#181818;stroke-width:0.5;" width="154" x="2082.36" y="7"/><text fill="#000000" font-family="sans-serif" font-size="14" font-weight="bold" lengthAdjust="spacing" textLength="94" x="2112.36" y="24.9951">MasterMind</text><line style="stroke:#181818;stroke-width:0.5;" x1="2083.36" x2="2235.36" y1="33.2969" y2="33.2969"/><text fill="#000000" font-family="sans-serif" font-size="14" lengthAdjust="spacing" textLength="142" x="2088.36" y="50.292">main(args : String[])</text></g><!--link Manche to Jeu--><g id="link_Manche_Jeu"><path codeLine="60" d="M1298.1034,695.0769 C1324.5834,724.9269 1341.688,744.2119 1370.248,776.4019 " fill="none" id="Manche-Jeu" style="stroke:#181818;stroke-width:1.0;"/><polygon fill="none" points="1290.14,686.1,1291.1294,693.2429,1298.1034,695.0769,1297.114,687.934,1290.14,686.1" style="stroke:#181818;stroke-width:1.0;"/><polygon fill="#181818" points="1374.23,780.89,1371.2491,771.5031,1370.9116,777.1499,1365.2649,776.8125,1374.23,780.89" style="stroke:#181818;stroke-width:1.0;"/><text fill="#000000" font-family="sans-serif" font-size="13" lengthAdjust="spacing" textLength="8" x="1338.9409" y="785.8951">1</text><text fill="#000000" font-family="sans-serif" font-size="13" lengthAdjust="spacing" textLength="43" x="1323.4409" y="801.0279">-partie</text></g><!--link Jeu to Color--><g id="link_Jeu_Color"><path codeLine="77" d="M1706.5854,1160.0159 C1712.4454,1163.7559 1708.29,1160.8 1714.36,1164 C1831.33,1225.71 1895.17,1136.29 2009.36,1203 C2052.38,1228.13 2078.6347,1277.8944 2089.7347,1302.4044 " fill="none" id="Jeu-Color" style="stroke:#181818;stroke-width:1.0;"/><polygon fill="none" points="1696.47,1153.56,1699.3757,1160.1598,1706.5854,1160.0159,1703.6797,1153.4162,1696.47,1153.56" style="stroke:#181818;stroke-width:1.0;"/><polygon fill="#181818" points="2092.21,1307.87,2092.1409,1298.0214,2090.1473,1303.3153,2084.8534,1301.3217,2092.21,1307.87" style="stroke:#181818;stroke-width:1.0;"/><text fill="#000000" font-family="sans-serif" font-size="13" lengthAdjust="spacing" textLength="7" x="2043.7307" y="1279.2462">*</text><text fill="#000000" font-family="sans-serif" font-size="13" lengthAdjust="spacing" textLength="88" x="2005.2307" y="1294.379">-couleursPion</text></g><!--link Manche to Color--><g id="link_Manche_Color"><path codeLine="78" d="M1408.0835,664.8635 C1436.1335,674.6235 1453.5,679.42 1481.36,686 C1635.47,722.38 1680.41,688.58 1836.36,716 C1875.81,722.94 1983.62,733.18 2010.36,763 C2159.66,929.51 2112.8357,1236.629 2100.8157,1301.959 " fill="none" id="Manche-Color" style="stroke:#181818;stroke-width:1.0;"/><polygon fill="none" points="1396.75,660.92,1401.1023,666.6696,1408.0835,664.8635,1403.7313,659.1139,1396.75,660.92" style="stroke:#181818;stroke-width:1.0;"/><polygon fill="#181818" points="2099.73,1307.86,2105.2925,1299.7324,2100.6348,1302.9425,2097.4246,1298.2848,2099.73,1307.86" style="stroke:#181818;stroke-width:1.0;"/><text fill="#000000" font-family="sans-serif" font-size="13" lengthAdjust="spacing" textLength="7" x="2188.1356" y="1281.6562">*</text><text fill="#000000" font-family="sans-serif" font-size="13" lengthAdjust="spacing" textLength="137" x="2125.1356" y="1296.789">-combinaisonSecrete</text></g><!--link Tentative to Color--><g id="link_Tentative_Color"><path codeLine="96" d="M1945.1336,1108.7348 C1997.6536,1190.1748 2052.1576,1269.9754 2080.3176,1303.1554 " fill="none" id="Tentative-Color" style="stroke:#181818;stroke-width:1.0;"/><polygon fill="none" points="1938.63,1098.65,1938.5202,1105.8603,1945.1336,1108.7348,1945.2434,1101.5245,1938.63,1098.65" style="stroke:#181818;stroke-width:1.0;"/><polygon fill="#181818" points="2084.2,1307.73,2081.426,1298.2799,2080.9646,1303.9179,2075.3266,1303.4565,2084.2,1307.73" style="stroke:#181818;stroke-width:1.0;"/><text fill="#000000" font-family="sans-serif" font-size="13" lengthAdjust="spacing" textLength="7" x="2194.8555" y="1321.2113">*</text><text fill="#000000" font-family="sans-serif" font-size="13" lengthAdjust="spacing" textLength="133" x="2133.8555" y="1336.3441">-combinaisonTentee</text></g><!--link Tentative to Color--><g id="link_Tentative_Color"><path codeLine="97" d="M1970.9061,1108.581 C2026.1461,1190.021 2076.7308,1269.1045 2092.0808,1302.2845 " fill="none" id="Tentative-Color-1" style="stroke:#181818;stroke-width:1.0;"/><polygon fill="none" points="1964.17,1098.65,1964.2277,1105.8609,1970.9061,1108.581,1970.8484,1101.3701,1964.17,1098.65" style="stroke:#181818;stroke-width:1.0;"/><polygon fill="#181818" points="2094.6,1307.73,2094.4515,1297.8823,2092.5006,1303.1921,2087.1908,1301.2412,2094.6,1307.73" style="stroke:#181818;stroke-width:1.0;"/><text fill="#000000" font-family="sans-serif" font-size="13" lengthAdjust="spacing" textLength="7" x="2057.5414" y="1321.3762">*</text><text fill="#000000" font-family="sans-serif" font-size="13" lengthAdjust="spacing" textLength="113" x="2006.5414" y="1336.509">-indicesTentative</text></g><!--link Manche to Tentative--><g id="link_Manche_Tentative"><path codeLine="99" d="M1407.7646,658.3378 C1436.1646,669.3778 1453.81,675.97 1481.36,686 C1583.84,723.32 1625.97,699.11 1714.36,763 C1739.09,780.87 1757.7014,799.4152 1777.1214,823.6852 " fill="none" id="Manche-Tentative" style="stroke:#181818;stroke-width:1.0;"/><polygon fill="none" points="1396.58,653.99,1400.723,659.8921,1407.7646,658.3378,1403.6216,652.4357,1396.58,653.99" style="stroke:#181818;stroke-width:1.0;"/><polygon fill="#181818" points="1780.87,828.37,1778.3703,818.8437,1777.7461,824.466,1772.1238,823.8418,1780.87,828.37" style="stroke:#181818;stroke-width:1.0;"/><polygon fill="#000000" points="1670.9236,726.6094,1663.8688,720.2312,1661.4672,725.596,1670.9236,726.6094" style="stroke:#000000;stroke-width:1.0;"/><text fill="#000000" font-family="sans-serif" font-size="13" lengthAdjust="spacing" textLength="54" x="1675.36" y="729.0669">poss&#232;de</text><text fill="#000000" font-family="sans-serif" font-size="13" lengthAdjust="spacing" textLength="7" x="1733.3627" y="802.2215">*</text><text fill="#000000" font-family="sans-serif" font-size="13" lengthAdjust="spacing" textLength="71" x="1703.3627" y="817.3543">-tentatives</text></g><!--reverse link JeuPrintStrategy to EasyPrint--><g id="link_JeuPrintStrategy_EasyPrint"><path d="M1113.5955,1004.5247 C1073.2455,1069.7047 973.78,1230.45 933.56,1295.45 " fill="none" id="JeuPrintStrategy-backto-EasyPrint" style="stroke:#181818;stroke-width:1.0;stroke-dasharray:7.0,7.0;"/><polygon fill="none" points="1123.07,989.22,1108.494,1001.3666,1118.6971,1007.6829,1123.07,989.22" style="stroke:#181818;stroke-width:1.0;"/></g><!--reverse link JeuPrintStrategy to ClassicPrint--><g id="link_JeuPrintStrategy_ClassicPrint"><path d="M1162.8289,1004.5835 C1202.6189,1069.7635 1300.7,1230.45 1340.37,1295.45 " fill="none" id="JeuPrintStrategy-backto-ClassicPrint" style="stroke:#181818;stroke-width:1.0;stroke-dasharray:7.0,7.0;"/><polygon fill="none" points="1153.45,989.22,1157.7077,1007.7098,1167.95,1001.4572,1153.45,989.22" style="stroke:#181818;stroke-width:1.0;"/></g><!--reverse link JeuPrintStrategy to NumericPrint--><g id="link_JeuPrintStrategy_NumericPrint"><path d="M1168.5911,1003.1943 C1203.2211,1046.3143 1269.96,1120.88 1357.36,1164 C1445.24,1207.36 1481.83,1170.77 1574.36,1203 C1641.7,1226.46 1713.37,1268.69 1755.44,1295.48 " fill="none" id="JeuPrintStrategy-backto-NumericPrint" style="stroke:#181818;stroke-width:1.0;stroke-dasharray:7.0,7.0;"/><polygon fill="none" points="1157.32,989.16,1163.913,1006.9514,1173.2692,999.4373,1157.32,989.16" style="stroke:#181818;stroke-width:1.0;"/></g><!--link Jeu to JeuPrintStrategy--><g id="link_Jeu_JeuPrintStrategy"><path codeLine="122" d="M1361.99,963.5 C1350.52,963.5 1357.05,963.5 1345.58,963.5 " fill="none" id="Jeu-JeuPrintStrategy" style="stroke:#181818;stroke-width:1.0;"/><polygon fill="none" points="1373.99,963.5,1367.99,959.5,1361.99,963.5,1367.99,967.5,1373.99,963.5" style="stroke:#181818;stroke-width:1.0;"/><polygon fill="#181818" points="1339.58,963.5,1348.58,967.5,1344.58,963.5,1348.58,959.5,1339.58,963.5" style="stroke:#181818;stroke-width:1.0;"/><text fill="#000000" font-family="sans-serif" font-size="13" lengthAdjust="spacing" textLength="8" x="1376.9378" y="980.0444">1</text><text fill="#000000" font-family="sans-serif" font-size="13" lengthAdjust="spacing" textLength="62" x="1351.9378" y="995.1772">-contexte</text></g><!--reverse link JFrame to JeuWindow--><g id="link_JFrame_JeuWindow"><path d="M2655.1981,597.3908 C2648.2281,619.4108 2637.41,649.63 2616.36,686 C2593.24,725.93 2564.9,766.44 2536.44,803.69 " fill="none" id="JFrame-backto-JeuWindow" style="stroke:#181818;stroke-width:1.0;"/><polygon fill="none" points="2660.63,580.23,2649.4778,595.5802,2660.9184,599.2015,2660.63,580.23" style="stroke:#181818;stroke-width:1.0;"/></g><!--reverse link JeuObserver to JeuWindow--><g id="link_JeuObserver_JeuWindow"><path d="M1961.5549,608.3039 C1976.1949,633.1239 1991.42,656.28 2017.36,686 C2048.91,722.14 2131.62,783 2212.14,838.44 " fill="none" id="JeuObserver-backto-JeuWindow" style="stroke:#181818;stroke-width:1.0;stroke-dasharray:7.0,7.0;"/><polygon fill="none" points="1952.41,592.8,1956.387,611.3522,1966.7229,605.2556,1952.41,592.8" style="stroke:#181818;stroke-width:1.0;"/></g><!--reverse link JeuObserver to JeuTextuelle--><g id="link_JeuObserver_JeuTextuelle"><path d="M1942.8863,523.5082 C1948.5563,478.0182 1965.54,402.52 2029.03,367.67 C2057.73,351.91 2071.33,358.27 2102.69,367.67 C2197.32,396.03 2289.72,464.57 2347.03,513.35 " fill="none" id="JeuObserver-backto-JeuTextuelle" style="stroke:#181818;stroke-width:1.0;stroke-dasharray:7.0,7.0;"/><polygon fill="none" points="1940.66,541.37,1948.8403,524.2503,1936.9324,522.7661,1940.66,541.37" style="stroke:#181818;stroke-width:1.0;"/></g><!--link JeuWindow to JeuController--><g id="link_JeuWindow_JeuController"><path codeLine="158" d="M2233.4691,794.652 C2200.8091,757.732 2176.2,726.35 2149.36,686 C2067.88,563.48 2129.9,470.38 2009.36,386 C1900.83,310.03 1034.2563,272.0794 667.6563,259.2794 " fill="none" id="JeuWindow-JeuController" style="stroke:#181818;stroke-width:1.0;"/><polygon fill="none" points="2241.42,803.64,2240.4405,796.4957,2233.4691,794.652,2234.4486,801.7963,2241.42,803.64" style="stroke:#181818;stroke-width:1.0;"/><polygon fill="#181818" points="661.66,259.07,670.5149,263.3816,666.657,259.2445,670.7941,255.3865,661.66,259.07" style="stroke:#181818;stroke-width:1.0;"/><polygon fill="#000000" points="2149.6289,565.4488,2157.2367,571.156,2159.1384,565.5942,2149.6289,565.4488" style="stroke:#000000;stroke-width:1.0;"/><text fill="#000000" font-family="sans-serif" font-size="13" lengthAdjust="spacing" textLength="31" x="2163.36" y="571.5669">send</text><text fill="#000000" font-family="sans-serif" font-size="13" lengthAdjust="spacing" textLength="8" x="696.2498" y="240.7859">1</text><text fill="#000000" font-family="sans-serif" font-size="13" lengthAdjust="spacing" textLength="62" x="673.2498" y="255.9187">controller</text></g><!--link JeuWindow to Jeu--><g id="link_JeuWindow_Jeu"><path codeLine="159" d="M2201.787,828.6887 C2144.337,796.1687 2089.72,771.69 2025.36,755 C1891.52,720.29 1839.63,704.47 1714.36,763 C1708.34,765.81 1707.6117,765.9151 1701.8217,769.2951 " fill="none" id="JeuWindow-Jeu" style="stroke:#181818;stroke-width:1.0;"/><polygon fill="none" points="2212.23,834.6,2208.9789,828.1633,2201.787,828.6887,2205.0381,835.1253,2212.23,834.6" style="stroke:#181818;stroke-width:1.0;"/><polygon fill="#181818" points="1696.64,772.32,1706.4291,771.2371,1700.9581,769.7993,1702.396,764.3282,1696.64,772.32" style="stroke:#181818;stroke-width:1.0;"/><polygon fill="#000000" points="1963.3949,723.9766,1972.0301,727.962,1972.7235,722.1252,1963.3949,723.9766" style="stroke:#000000;stroke-width:1.0;"/><text fill="#000000" font-family="sans-serif" font-size="13" lengthAdjust="spacing" textLength="47" x="1977.36" y="729.0669">display</text><text fill="#000000" font-family="sans-serif" font-size="13" lengthAdjust="spacing" textLength="8" x="1710.4918" y="745.0543">1</text><text fill="#000000" font-family="sans-serif" font-size="13" lengthAdjust="spacing" textLength="20" x="1708.4918" y="760.1871">jeu</text></g><!--link MasterMind to JeuWindow--><g id="link_MasterMind_JeuWindow"><path codeLine="160" d="M2236.55,55.96 C2363.12,97.45 2610.91,199.38 2713.36,386 C2777.53,502.88 2768.17,564.45 2713.36,686 C2686.16,746.31 2643.1591,794.8712 2593.1891,837.4012 " fill="none" id="MasterMind-to-JeuWindow" style="stroke:#181818;stroke-width:1.0;stroke-dasharray:7.0,7.0;"/><polygon fill="#181818" points="2588.62,841.29,2598.0663,838.5028,2592.4276,838.0493,2592.8811,832.4107,2588.62,841.29" style="stroke:#181818;stroke-width:1.0;"/><text fill="#000000" font-family="sans-serif" font-size="13" lengthAdjust="spacing" textLength="57" x="2707.36" y="374.0669">&#171;create&#187;</text></g><!--link MasterMind to JeuController--><g id="link_MasterMind_JeuController"><path codeLine="161" d="M2082.12,43.67 C1827.51,77.21 1016.9786,183.9565 667.4986,229.9865 " fill="none" id="MasterMind-to-JeuController" style="stroke:#181818;stroke-width:1.0;stroke-dasharray:7.0,7.0;"/><polygon fill="#181818" points="661.55,230.77,670.9953,233.5605,666.5072,230.1171,669.9506,225.629,661.55,230.77" style="stroke:#181818;stroke-width:1.0;"/><text fill="#000000" font-family="sans-serif" font-size="13" lengthAdjust="spacing" textLength="57" x="1715.36" y="101.0669">&#171;create&#187;</text></g><!--link MasterMind to Jeu--><g id="link_MasterMind_Jeu"><path codeLine="162" d="M2161.9,58.35 C2172.26,164.74 2207.6,581.1 2137.36,686 C2109.14,728.15 2082.39,720 2033.36,733 C1895.71,769.49 1841.54,698.93 1714.36,763 C1708.34,766.04 1707.5257,766.2185 1701.7257,769.7985 " fill="none" id="MasterMind-to-Jeu" style="stroke:#181818;stroke-width:1.0;stroke-dasharray:7.0,7.0;"/><polygon fill="#181818" points="1696.62,772.95,1706.3795,771.6266,1700.8748,770.3238,1702.1776,764.819,1696.62,772.95" style="stroke:#181818;stroke-width:1.0;"/><text fill="#000000" font-family="sans-serif" font-size="13" lengthAdjust="spacing" textLength="57" x="2180.36" y="374.0669">&#171;create&#187;</text></g><!--link JeuObserver to Jeu--><g id="link_JeuObserver_Jeu"><path codeLine="163" d="M1902.9475,596.5187 C1858.7775,632.4887 1780.11,698.23 1714.36,763 C1708.48,768.8 1710.95,766.1803 1705.01,772.2403 " fill="none" id="JeuObserver-Jeu" style="stroke:#181818;stroke-width:1.0;"/><polygon fill="#181818" points="1907.6,592.73,1898.0955,595.3115,1903.7229,595.8873,1903.1471,601.5148,1907.6,592.73" style="stroke:#181818;stroke-width:1.0;"/><polygon fill="none" points="1696.61,780.81,1703.6666,779.3252,1705.01,772.2403,1697.9534,773.7251,1696.61,780.81" style="stroke:#181818;stroke-width:1.0;"/><polygon fill="#000000" points="1762.6209,727.8859,1771.3362,724.0787,1767.4339,719.6831,1762.6209,727.8859" style="stroke:#000000;stroke-width:1.0;"/><text fill="#000000" font-family="sans-serif" font-size="13" lengthAdjust="spacing" textLength="52" x="1775.36" y="729.0669">observe</text><text fill="#000000" font-family="sans-serif" font-size="13" lengthAdjust="spacing" textLength="7" x="1746.1666" y="755.1632">*</text><text fill="#000000" font-family="sans-serif" font-size="13" lengthAdjust="spacing" textLength="86" x="1708.6666" y="770.296">jeuObservers</text></g><!--link Manche to MancheObserver--><g id="link_Manche_MancheObserver"><path codeLine="164" d="M1408.47,567 C1445.23,567 1463.02,567 1492.34,567 " fill="none" id="Manche-MancheObserver" style="stroke:#181818;stroke-width:1.0;"/><polygon fill="none" points="1396.47,567,1402.47,571,1408.47,567,1402.47,563,1396.47,567" style="stroke:#181818;stroke-width:1.0;"/><polygon fill="#181818" points="1498.34,567,1489.34,563,1493.34,567,1489.34,571,1498.34,567" style="stroke:#181818;stroke-width:1.0;"/><polygon fill="#000000" points="1413.86,555.5664,1422.9051,558.5053,1422.9051,552.6275,1413.86,555.5664" style="stroke:#000000;stroke-width:1.0;"/><text fill="#000000" font-family="sans-serif" font-size="13" lengthAdjust="spacing" textLength="52" x="1427.86" y="560.0669">observe</text><text fill="#000000" font-family="sans-serif" font-size="13" lengthAdjust="spacing" textLength="7" x="1425.4216" y="585.1425">*</text><text fill="#000000" font-family="sans-serif" font-size="13" lengthAdjust="spacing" textLength="118" x="1371.9216" y="600.2753">mancheObservers</text></g><!--link JeuController to Manche--><g id="link_JeuController_Manche"><path codeLine="165" d="M661.4,327.35 C754.73,369.86 867.8896,421.4031 968.6496,467.2931 " fill="none" id="JeuController-to-Manche" style="stroke:#181818;stroke-width:1.0;stroke-dasharray:7.0,7.0;"/><polygon fill="#181818" points="974.11,469.78,967.5774,462.4095,969.5597,467.7076,964.2616,469.69,974.11,469.78" style="stroke:#181818;stroke-width:1.0;"/><text fill="#000000" font-family="sans-serif" font-size="13" lengthAdjust="spacing" textLength="57" x="762.36" y="374.0669">&#171;create&#187;</text></g><!--link JeuController to MancheController--><g id="link_JeuController_MancheController"><path codeLine="166" d="M480.59,331.12 C466.47,386.16 449.2903,453.168 436.5003,503.048 " fill="none" id="JeuController-to-MancheController" style="stroke:#181818;stroke-width:1.0;stroke-dasharray:7.0,7.0;"/><polygon fill="#181818" points="435.01,508.86,441.1201,501.1356,436.2519,504.0167,433.3708,499.1485,435.01,508.86" style="stroke:#181818;stroke-width:1.0;"/><text fill="#000000" font-family="sans-serif" font-size="13" lengthAdjust="spacing" textLength="57" x="472.36" y="374.0669">&#171;create&#187;</text></g><!--link Manche to MancheController--><g id="link_Manche_MancheController"><path codeLine="167" d="M968.17,567 C871.11,567 773.52,567 673.1,567 " fill="none" id="Manche-MancheController" style="stroke:#181818;stroke-width:1.0;"/><polygon fill="#181818" points="974.17,567,965.17,563,969.17,567,965.17,571,974.17,567" style="stroke:#181818;stroke-width:1.0;"/><polygon fill="none" points="661.1,567,667.1,571,673.1,567,667.1,563,661.1,567" style="stroke:#181818;stroke-width:1.0;"/><polygon fill="#000000" points="795.11,555.5664,786.0649,552.6275,786.0649,558.5053,795.11,555.5664" style="stroke:#000000;stroke-width:1.0;"/><text fill="#000000" font-family="sans-serif" font-size="13" lengthAdjust="spacing" textLength="50" x="799.11" y="560.0669">modifie</text><text fill="#000000" font-family="sans-serif" font-size="13" lengthAdjust="spacing" textLength="8" x="933.3544" y="548.5814">1</text><text fill="#000000" font-family="sans-serif" font-size="13" lengthAdjust="spacing" textLength="50" x="916.3544" y="563.7142">Manche</text></g><!--link MancheController to Manche--><g id="link_MancheController_Manche"><path codeLine="169" d="M672.9381,585.2047 C734.5881,587.9547 788.8,588.83 850.11,587 C890.18,585.81 926.9192,584.1427 967.9792,581.8627 " fill="none" id="MancheController-Manche" style="stroke:#181818;stroke-width:1.0;"/><polygon fill="none" points="660.95,584.67,666.7658,588.9334,672.9381,585.2047,667.1223,580.9413,660.95,584.67" style="stroke:#181818;stroke-width:1.0;"/><polygon fill="#181818" points="973.97,581.53,964.7621,578.0351,968.9777,581.8072,965.2056,586.0228,973.97,581.53" style="stroke:#181818;stroke-width:1.0;"/><polygon fill="#000000" points="795.1097,578.5098,786.0319,575.6735,786.0985,581.551,795.1097,578.5098" style="stroke:#000000;stroke-width:1.0;"/><text fill="#000000" font-family="sans-serif" font-size="13" lengthAdjust="spacing" textLength="50" x="799.11" y="583.0669">modifie</text><text fill="#000000" font-family="sans-serif" font-size="13" lengthAdjust="spacing" textLength="8" x="932.115" y="594.5725">1</text><text fill="#000000" font-family="sans-serif" font-size="13" lengthAdjust="spacing" textLength="52" x="914.115" y="609.7053">manche</text></g><!--link JeuController to Jeu--><g id="link_JeuController_Jeu"><path codeLine="168" d="M327.4737,264.8545 C240.7837,278.8645 152.45,309.99 97.36,386 C19.12,493.96 6,588.89 97.36,686 C193.47,788.16 1231.17,701.78 1357.36,763 C1363.1,765.79 1363.5877,765.7754 1369.1177,769.0754 " fill="none" id="JeuController-Jeu" style="stroke:#181818;stroke-width:1.0;"/><polygon fill="none" points="339.32,262.94,332.7587,259.9485,327.4737,264.8545,334.035,267.846,339.32,262.94" style="stroke:#181818;stroke-width:1.0;"/><polygon fill="#181818" points="1374.27,772.15,1368.5912,764.1032,1369.9764,769.5878,1364.4917,770.9729,1374.27,772.15" style="stroke:#181818;stroke-width:1.0;"/><polygon fill="#000000" points="106.8605,569.2449,99.9995,562.6587,97.4386,567.9493,106.8605,569.2449" style="stroke:#000000;stroke-width:1.0;"/><text fill="#000000" font-family="sans-serif" font-size="13" lengthAdjust="spacing" textLength="50" x="111.36" y="571.5669">modifie</text><text fill="#000000" font-family="sans-serif" font-size="13" lengthAdjust="spacing" textLength="8" x="1348.4269" y="744.8766">1</text><text fill="#000000" font-family="sans-serif" font-size="13" lengthAdjust="spacing" textLength="20" x="1346.4269" y="760.0094">Jeu</text></g><!--SRC=[tLZTRjis5BxNKn2wYRFMpdOR50PQem4Im4tGPDb5jmjQEdQOIgGWKaazm-_JzzYBxP3K3obHIb1W6x1S117FTtvv_fYJ1wKAUNvsLcIKgohF5ed8pvACIZbF6TsLD8yY-PNnWkAVn13UArMoJQNWCX7yblq9vES-v49mTQls6P0F8aiTgZI74WKaMblqm58Wa1TgJtB8Dr3AA2feyfNkWAnGI2co3Cf3517yCQB95LGkXTG_S_885JdNvFRiZG-UjOXJ1o91VTgiAKyUGCvuynVYBhc27PG3x0qJNAv4lc48xpvUuhWJYcODX_cOuBW3hgXYJyQaxcEKupOH9SpiuT6DbdMdYu4X7HpcFc2McmFKP2ckeXrmAA4qxdBA95u_92KeU0NJ9KzPWkvWpYZufi1Un4t9TAQK59tQloMgyHIfhTUki2SesPPv9ip2JFZnGOWCA7VO4veb5JffmpMXxHWTkqHyf4zqGP_LmOdhIcIYT45haKBMJrGtFGEfvL53cJG4z1B70uJon058xNI8eas_CgM1Dy7upg-VcN-PQbLVuEmqS8K-jAkhqu3U6kAKqqieMq8JAATiHb5rgOoHws0Om20Sqd5_8f7_T-sb2KgUjb5n4JHDaNgzaL1YWSx4HjgWD2SkbWl5jdiNtbIS_ct3GyHylYJnBxzpCiUveHZ4RLy_EJdHkIhcbORyf26s-SYuvXwsFt9uJHbu5VGPfCA962obfcc6vma6enS9YnuFHYyIRIhU6DURElDfoR07QvnfIr_-wATilg4-DgbJgiQVZXTI6uWVgoWv9arDXJeutNeNvwQDpOXqlhG9aGXiybKfTIt4TQlsiij1ziFOu9qaQirtqeXltc-2RPPlBcZrBKovBr5JA4ojXeb1khCNMLkhEM3apX5PJzjExXWGlGZV7DAq8wD4uqkOAbzjgNojfRAsr3lHzda7nYOdBLgX8rTkJNCp9CZ1UYPwAUBcLDsFkjIE7O7dP4aA8ULVtzEwHU74W79B4t1xfRkR_LgaL87N83iUlwkqR0EkeIflLhdww7RBaeTcK-kbukHsvksS7wdS6ns4vKK6EKBbFwRNMSdqRvRy1ve_LJdkfV-UvhRdsH7PR28nPk5ok9BXbjeigVSCdW_-YleRPhTu9fgVftXoWSyqS9qmY-qYcA6XDzUS9ErRmfAwjmKvb43JQvxjZmw-v_k0idBb1TypZLxJzU_mETcqaF1m_xZT0Zu_ZRpG5c1rN8dAcsHjhBgn_rRxlnfrrvrYQ-3-9drTA9nE_iZ7o7i7NYNRetkQuPEvxDgbLaSPFh4mDFgLpI5pyRTA5FMsuXvVC5_rPy3tVz9RGH2qfXtdiVUukSESgG0TdSoMteDp7iYOoI1szhWgV-GEUdtn63KheiJUkCQhZQoPESPnHikTR7TTlI0T8rqyYwvYX5bH2HPWb_1nftXnrJDhYPiCwXXAiKBGYxYBdi6dJ1OPtKUTXMInM9AUX7FoxXrkBkZQSjc7JfWppkGQuQBQOpFb7hihbd6zZWykNqiWmdxK0kfvQMJatWYJjd-viA2SKQSSwzTDJt4ScEPpgEjXsmcB6G1D6EnzMbhSjsT9Sf7gVs6CczEcnDKm9GBC0IDg_lm54_u6]--></g></svg>