<?xml version="1.0" encoding="us-ascii" standalone="no"?><svg xmlns="http://www.w3.org/2000/svg" xmlns:xlink="http://www.w3.org/1999/xlink" contentStyleType="text/css" height="1267px" preserveAspectRatio="none" style="width:2728px;height:1267px;background:#FFFFFF;" version="1.1" viewBox="0 0 2728 1267" width="2728px" zoomAndPan="magnify"><defs/><g><!--cluster Controller--><g id="cluster_Controller"><polygon fill="none" points="621.46,121,708.46,121,715.46,143.2969,1115.46,143.2969,1115.46,576,621.46,576,621.46,121" style="stroke:#000000;stroke-width:1.5;"/><line style="stroke:#000000;stroke-width:1.5;" x1="621.46" x2="715.46" y1="143.2969" y2="143.2969"/><text fill="#000000" font-family="sans-serif" font-size="14" font-weight="bold" lengthAdjust="spacing" textLength="81" x="625.46" y="135.9951">Controller</text></g><!--cluster java--><g id="cluster_java"><polygon fill="none" points="2505.46,1097,2543.46,1097,2550.46,1119.2969,2633.46,1119.2969,2633.46,1260,2505.46,1260,2505.46,1097" style="stroke:#000000;stroke-width:1.5;"/><line style="stroke:#000000;stroke-width:1.5;" x1="2505.46" x2="2550.46" y1="1119.2969" y2="1119.2969"/><text fill="#000000" font-family="sans-serif" font-size="14" font-weight="bold" lengthAdjust="spacing" textLength="32" x="2509.46" y="1111.9951">java</text></g><!--cluster awt--><g id="cluster_awt"><polygon fill="none" points="2529.46,1140,2564.46,1140,2571.46,1162.2969,2609.46,1162.2969,2609.46,1236,2529.46,1236,2529.46,1140" style="stroke:#000000;stroke-width:1.5;"/><line style="stroke:#000000;stroke-width:1.5;" x1="2529.46" x2="2571.46" y1="1162.2969" y2="1162.2969"/><text fill="#000000" font-family="sans-serif" font-size="14" font-weight="bold" lengthAdjust="spacing" textLength="29" x="2533.46" y="1154.9951">awt</text></g><!--cluster Model--><g id="cluster_Model"><polygon fill="none" points="1231.46,329,1286.46,329,1293.46,351.2969,2481.46,351.2969,2481.46,1248.5,1231.46,1248.5,1231.46,329" style="stroke:#000000;stroke-width:1.5;"/><line style="stroke:#000000;stroke-width:1.5;" x1="1231.46" x2="1293.46" y1="351.2969" y2="351.2969"/><text fill="#000000" font-family="sans-serif" font-size="14" font-weight="bold" lengthAdjust="spacing" textLength="49" x="1235.46" y="343.9951">Model</text></g><!--cluster View--><g id="cluster_View"><polygon fill="none" points="82.46,394.5,127.46,394.5,134.46,416.7969,597.46,416.7969,597.46,943.5,82.46,943.5,82.46,394.5" style="stroke:#000000;stroke-width:1.5;"/><line style="stroke:#000000;stroke-width:1.5;" x1="82.46" x2="134.46" y1="416.7969" y2="416.7969"/><text fill="#000000" font-family="sans-serif" font-size="14" font-weight="bold" lengthAdjust="spacing" textLength="39" x="86.46" y="409.4951">View</text></g><!--class JeuController--><g id="elem_JeuController"><rect codeLine="10" fill="#F1F1F1" height="91.1875" id="JeuController" rx="2.5" ry="2.5" style="stroke:#181818;stroke-width:0.5;" width="184" x="915.46" y="175"/><text fill="#000000" font-family="sans-serif" font-size="14" font-weight="bold" lengthAdjust="spacing" textLength="106" x="954.46" y="192.9951">JeuController</text><line style="stroke:#181818;stroke-width:0.5;" x1="916.46" x2="1098.46" y1="201.2969" y2="201.2969"/><text fill="#000000" font-family="sans-serif" font-size="14" lengthAdjust="spacing" textLength="62" x="921.46" y="218.292">-jeu : Jeu</text><line style="stroke:#181818;stroke-width:0.5;" x1="916.46" x2="1098.46" y1="225.5938" y2="225.5938"/><text fill="#000000" font-family="sans-serif" font-size="14" lengthAdjust="spacing" textLength="172" x="921.46" y="242.5889">+JeuController(jeu : Jeu)</text><text fill="#000000" font-family="sans-serif" font-size="14" lengthAdjust="spacing" textLength="46" x="921.46" y="258.8857">+run()</text></g><!--class MancheController--><g id="elem_MancheController"><rect codeLine="16" fill="#F1F1F1" height="115.7813" id="MancheController" rx="2.5" ry="2.5" style="stroke:#181818;stroke-width:0.5;" width="462" x="637.46" y="444"/><text fill="#000000" font-family="sans-serif" font-size="14" font-weight="bold" lengthAdjust="spacing" textLength="142" x="797.46" y="461.9951">MancheController</text><line style="stroke:#181818;stroke-width:0.5;" x1="638.46" x2="1098.46" y1="470.2969" y2="470.2969"/><text fill="#000000" font-family="sans-serif" font-size="14" lengthAdjust="spacing" textLength="276" x="643.46" y="487.292">+MancheController(manche : Manche)</text><text fill="#000000" font-family="sans-serif" font-size="14" lengthAdjust="spacing" textLength="354" x="643.46" y="503.5889">+genererCombinaisonSecrete(manche : Manche)</text><text fill="#000000" font-family="sans-serif" font-size="14" lengthAdjust="spacing" textLength="450" x="643.46" y="519.8857">+genererIndices(contexte : JeuPrintStrategy, tentative : Color[])</text><text fill="#000000" font-family="sans-serif" font-size="14" lengthAdjust="spacing" textLength="362" x="643.46" y="536.1826">+verifierCombinaison(tentative : Color[]) : Boolean</text><text fill="#000000" font-family="sans-serif" font-size="14" lengthAdjust="spacing" textLength="128" x="643.46" y="552.4795">+notifierVictoire()</text></g><!--class Color--><g id="elem_Color"><rect codeLine="27" fill="#F1F1F1" height="26.2969" id="Color" rx="2.5" ry="2.5" style="stroke:#181818;stroke-width:0.5;" width="48" x="2545.46" y="1194"/><text fill="#000000" font-family="sans-serif" font-size="14" font-weight="bold" lengthAdjust="spacing" textLength="42" x="2548.46" y="1211.9951">Color</text></g><!--class Jeu--><g id="elem_Jeu"><rect codeLine="32" fill="#F1F1F1" height="351.9375" id="Jeu" rx="2.5" ry="2.5" style="stroke:#181818;stroke-width:0.5;" width="322" x="1665.46" y="698"/><text fill="#000000" font-family="sans-serif" font-size="14" font-weight="bold" lengthAdjust="spacing" textLength="25" x="1813.96" y="715.9951">Jeu</text><line style="stroke:#181818;stroke-width:0.5;" x1="1666.46" x2="1986.46" y1="724.2969" y2="724.2969"/><text fill="#000000" font-family="sans-serif" font-size="14" lengthAdjust="spacing" textLength="150" x="1671.46" y="741.292">-nbManches : Integer</text><text fill="#000000" font-family="sans-serif" font-size="14" lengthAdjust="spacing" textLength="170" x="1671.46" y="757.5889">-nbPionsCombi : Integer</text><text fill="#000000" font-family="sans-serif" font-size="14" lengthAdjust="spacing" textLength="160" x="1671.46" y="773.8857">-nbPionsTotal : Integer</text><text fill="#000000" font-family="sans-serif" font-size="14" lengthAdjust="spacing" textLength="161" x="1671.46" y="790.1826">-nbTentatives : Integer</text><text fill="#000000" font-family="sans-serif" font-size="14" lengthAdjust="spacing" textLength="108" x="1671.46" y="806.4795">-score : Integer</text><line style="stroke:#181818;stroke-width:0.5;" x1="1666.46" x2="1986.46" y1="813.7813" y2="813.7813"/><text fill="#000000" font-family="sans-serif" font-size="14" lengthAdjust="spacing" textLength="44" x="1671.46" y="830.7764">+Jeu()</text><text fill="#000000" font-family="sans-serif" font-size="14" lengthAdjust="spacing" textLength="236" x="1671.46" y="847.0732">+getContexte() : JeuPrintStrategy</text><text fill="#000000" font-family="sans-serif" font-size="14" lengthAdjust="spacing" textLength="191" x="1671.46" y="863.3701">+getNbManches() : Integer</text><text fill="#000000" font-family="sans-serif" font-size="14" lengthAdjust="spacing" textLength="211" x="1671.46" y="879.667">+getNbPionsCombi() : Integer</text><text fill="#000000" font-family="sans-serif" font-size="14" lengthAdjust="spacing" textLength="201" x="1671.46" y="895.9639">+getNbPionsTotal() : Integer</text><text fill="#000000" font-family="sans-serif" font-size="14" lengthAdjust="spacing" textLength="202" x="1671.46" y="912.2607">+getNbTentatives() : Integer</text><text fill="#000000" font-family="sans-serif" font-size="14" lengthAdjust="spacing" textLength="150" x="1671.46" y="928.5576">+getScore() : Integer</text><text fill="#000000" font-family="sans-serif" font-size="14" lengthAdjust="spacing" textLength="296" x="1671.46" y="944.8545">+setContexte(contexte : JeuPrintStrategy)</text><text fill="#000000" font-family="sans-serif" font-size="14" lengthAdjust="spacing" textLength="270" x="1671.46" y="961.1514">+setNbManches(nbManches : Integer)</text><text fill="#000000" font-family="sans-serif" font-size="14" lengthAdjust="spacing" textLength="310" x="1671.46" y="977.4482">+setNbPionsCombi(nbPionsCombi : Integer)</text><text fill="#000000" font-family="sans-serif" font-size="14" lengthAdjust="spacing" textLength="290" x="1671.46" y="993.7451">+setNbPionsTotal(nbPionsTotal : Integer)</text><text fill="#000000" font-family="sans-serif" font-size="14" lengthAdjust="spacing" textLength="292" x="1671.46" y="1010.042">+setNbTentatives(nbTentatives : Integer)</text><text fill="#000000" font-family="sans-serif" font-size="14" lengthAdjust="spacing" textLength="261" x="1671.46" y="1026.3389">+addJeuObserver(obs : JeuObserver)</text><text fill="#000000" font-family="sans-serif" font-size="14" lengthAdjust="spacing" textLength="149" x="1671.46" y="1042.6357">+notifyJeuObserver()</text></g><!--class Manche--><g id="elem_Manche"><rect codeLine="54" fill="#F1F1F1" height="237.8594" id="Manche" rx="2.5" ry="2.5" style="stroke:#181818;stroke-width:0.5;" width="422" x="1524.46" y="383"/><text fill="#000000" font-family="sans-serif" font-size="14" font-weight="bold" lengthAdjust="spacing" textLength="61" x="1704.96" y="400.9951">Manche</text><line style="stroke:#181818;stroke-width:0.5;" x1="1525.46" x2="1945.46" y1="409.2969" y2="409.2969"/><text fill="#000000" font-family="sans-serif" font-size="14" lengthAdjust="spacing" textLength="108" x="1530.46" y="426.292">-score : Integer</text><text fill="#000000" font-family="sans-serif" font-size="14" lengthAdjust="spacing" textLength="231" x="1530.46" y="442.5889">-nbTentativesRestantes : Integer</text><line style="stroke:#181818;stroke-width:0.5;" x1="1525.46" x2="1945.46" y1="449.8906" y2="449.8906"/><text fill="#000000" font-family="sans-serif" font-size="14" lengthAdjust="spacing" textLength="135" x="1530.46" y="466.8857">+Manche(jeu : Jeu)</text><text fill="#000000" font-family="sans-serif" font-size="14" lengthAdjust="spacing" textLength="273" x="1530.46" y="483.1826">+addObserver(obs : MancheObserver)</text><text fill="#000000" font-family="sans-serif" font-size="14" lengthAdjust="spacing" textLength="127" x="1530.46" y="499.4795">+notifyObserver()</text><text fill="#000000" font-family="sans-serif" font-size="14" lengthAdjust="spacing" textLength="121" x="1530.46" y="515.7764">+getPartie() : Jeu</text><text fill="#000000" font-family="sans-serif" font-size="14" lengthAdjust="spacing" textLength="252" x="1530.46" y="532.0732">+getcombinaisonSecrete() : Color[]</text><text fill="#000000" font-family="sans-serif" font-size="14" lengthAdjust="spacing" textLength="301" x="1530.46" y="548.3701">+setCombanaisonSecrete(combi : Color[])</text><text fill="#000000" font-family="sans-serif" font-size="14" lengthAdjust="spacing" textLength="230" x="1530.46" y="564.667">+getTentativeRestant() : Integer</text><text fill="#000000" font-family="sans-serif" font-size="14" lengthAdjust="spacing" textLength="150" x="1530.46" y="580.9639">+getScore() : Integer</text><text fill="#000000" font-family="sans-serif" font-size="14" lengthAdjust="spacing" textLength="410" x="1530.46" y="597.2607">+setNbTentativesRestantes(tentativesRestantes : Integer)</text><text fill="#000000" font-family="sans-serif" font-size="14" lengthAdjust="spacing" textLength="187" x="1530.46" y="613.5576">+setScore(score : Integer)</text></g><!--class JeuObserver--><g id="elem_JeuObserver"><rect codeLine="72" fill="#F1F1F1" height="50.5938" id="JeuObserver" rx="2.5" ry="2.5" style="stroke:#181818;stroke-width:0.5;" width="104" x="1385.46" y="476.5"/><text fill="#000000" font-family="sans-serif" font-size="14" font-style="italic" font-weight="bold" lengthAdjust="spacing" textLength="98" x="1388.46" y="494.4951">JeuObserver</text><line style="stroke:#181818;stroke-width:0.5;" x1="1386.46" x2="1488.46" y1="502.7969" y2="502.7969"/><text fill="#000000" font-family="sans-serif" font-size="14" lengthAdjust="spacing" textLength="73" x="1391.46" y="519.792">+Update()</text></g><!--class MancheObserver--><g id="elem_MancheObserver"><rect codeLine="75" fill="#F1F1F1" height="50.5938" id="MancheObserver" rx="2.5" ry="2.5" style="stroke:#181818;stroke-width:0.5;" width="140" x="2048.46" y="476.5"/><text fill="#000000" font-family="sans-serif" font-size="14" font-style="italic" font-weight="bold" lengthAdjust="spacing" textLength="134" x="2051.46" y="494.4951">MancheObserver</text><line style="stroke:#181818;stroke-width:0.5;" x1="2049.46" x2="2187.46" y1="502.7969" y2="502.7969"/><text fill="#000000" font-family="sans-serif" font-size="14" lengthAdjust="spacing" textLength="73" x="2054.46" y="519.792">+Update()</text></g><!--class JeuPrintStrategy--><g id="elem_JeuPrintStrategy"><rect codeLine="79" fill="#F1F1F1" height="50.5938" id="JeuPrintStrategy" rx="2.5" ry="2.5" style="stroke:#181818;stroke-width:0.5;" width="383" x="1246.96" y="848.5"/><text fill="#000000" font-family="sans-serif" font-size="14" font-style="italic" font-weight="bold" lengthAdjust="spacing" textLength="133" x="1371.96" y="866.4951">JeuPrintStrategy</text><line style="stroke:#181818;stroke-width:0.5;" x1="1247.96" x2="1628.96" y1="874.7969" y2="874.7969"/><text fill="#000000" font-family="sans-serif" font-size="14" lengthAdjust="spacing" textLength="371" x="1252.96" y="891.792">+affichIndices(manche : Manche, tentative : Color[])</text></g><!--class EasyPrint--><g id="elem_EasyPrint"><rect codeLine="83" fill="#F1F1F1" height="50.5938" id="EasyPrint" rx="2.5" ry="2.5" style="stroke:#181818;stroke-width:0.5;" width="383" x="1246.96" y="1181.5"/><text fill="#000000" font-family="sans-serif" font-size="14" font-weight="bold" lengthAdjust="spacing" textLength="75" x="1400.96" y="1199.4951">EasyPrint</text><line style="stroke:#181818;stroke-width:0.5;" x1="1247.96" x2="1628.96" y1="1207.7969" y2="1207.7969"/><text fill="#000000" font-family="sans-serif" font-size="14" lengthAdjust="spacing" textLength="371" x="1252.96" y="1224.792">+affichIndices(manche : Manche, tentative : Color[])</text></g><!--class ClassicPrint--><g id="elem_ClassicPrint"><rect codeLine="86" fill="#F1F1F1" height="50.5938" id="ClassicPrint" rx="2.5" ry="2.5" style="stroke:#181818;stroke-width:0.5;" width="383" x="1664.96" y="1181.5"/><text fill="#000000" font-family="sans-serif" font-size="14" font-weight="bold" lengthAdjust="spacing" textLength="92" x="1810.46" y="1199.4951">ClassicPrint</text><line style="stroke:#181818;stroke-width:0.5;" x1="1665.96" x2="2046.96" y1="1207.7969" y2="1207.7969"/><text fill="#000000" font-family="sans-serif" font-size="14" lengthAdjust="spacing" textLength="371" x="1670.96" y="1224.792">+affichIndices(manche : Manche, tentative : Color[])</text></g><!--class NumericPrint--><g id="elem_NumericPrint"><rect codeLine="89" fill="#F1F1F1" height="50.5938" id="NumericPrint" rx="2.5" ry="2.5" style="stroke:#181818;stroke-width:0.5;" width="383" x="2082.96" y="1181.5"/><text fill="#000000" font-family="sans-serif" font-size="14" font-weight="bold" lengthAdjust="spacing" textLength="106" x="2221.46" y="1199.4951">NumericPrint</text><line style="stroke:#181818;stroke-width:0.5;" x1="2083.96" x2="2464.96" y1="1207.7969" y2="1207.7969"/><text fill="#000000" font-family="sans-serif" font-size="14" lengthAdjust="spacing" textLength="371" x="2088.96" y="1224.792">+affichIndices(manche : Manche, tentative : Color[])</text></g><!--class JeuWindow--><g id="elem_JeuWindow"><rect codeLine="97" fill="#F1F1F1" height="107.4844" id="JeuWindow" rx="2.5" ry="2.5" style="stroke:#181818;stroke-width:0.5;" width="376" x="205.46" y="820.5"/><text fill="#000000" font-family="sans-serif" font-size="14" font-weight="bold" lengthAdjust="spacing" textLength="88" x="349.46" y="838.4951">JeuWindow</text><line style="stroke:#181818;stroke-width:0.5;" x1="206.46" x2="580.46" y1="846.7969" y2="846.7969"/><text fill="#000000" font-family="sans-serif" font-size="14" lengthAdjust="spacing" textLength="62" x="211.46" y="863.792">-jeu : Jeu</text><text fill="#000000" font-family="sans-serif" font-size="14" lengthAdjust="spacing" textLength="204" x="211.46" y="880.0889">-jeuController : JeuController</text><line style="stroke:#181818;stroke-width:0.5;" x1="206.46" x2="580.46" y1="887.3906" y2="887.3906"/><text fill="#000000" font-family="sans-serif" font-size="14" lengthAdjust="spacing" textLength="364" x="211.46" y="904.3857">+JeuWindow(jeu : Jeu, jeuController : JeuController)</text><text fill="#000000" font-family="sans-serif" font-size="14" lengthAdjust="spacing" textLength="73" x="211.46" y="920.6826">+Update()</text></g><!--class JFrame--><g id="elem_JFrame"><rect fill="#F1F1F1" height="26.2969" id="JFrame" rx="2.5" ry="2.5" style="stroke:#181818;stroke-width:0.5;" width="62" x="98.46" y="489"/><text fill="#000000" font-family="sans-serif" font-size="14" font-weight="bold" lengthAdjust="spacing" textLength="56" x="101.46" y="506.9951">JFrame</text></g><!--class JeuTextuelle--><g id="elem_JeuTextuelle"><rect codeLine="105" fill="#F1F1F1" height="107.4844" id="JeuTextuelle" rx="2.5" ry="2.5" style="stroke:#181818;stroke-width:0.5;" width="386" x="195.46" y="448.5"/><text fill="#000000" font-family="sans-serif" font-size="14" font-weight="bold" lengthAdjust="spacing" textLength="101" x="337.96" y="466.4951">JeuTextuelle</text><line style="stroke:#181818;stroke-width:0.5;" x1="196.46" x2="580.46" y1="474.7969" y2="474.7969"/><text fill="#000000" font-family="sans-serif" font-size="14" lengthAdjust="spacing" textLength="62" x="201.46" y="491.792">-jeu : Jeu</text><text fill="#000000" font-family="sans-serif" font-size="14" lengthAdjust="spacing" textLength="204" x="201.46" y="508.0889">-jeuController : JeuController</text><line style="stroke:#181818;stroke-width:0.5;" x1="196.46" x2="580.46" y1="515.3906" y2="515.3906"/><text fill="#000000" font-family="sans-serif" font-size="14" lengthAdjust="spacing" textLength="374" x="201.46" y="532.3857">+JeuTextuelle(jeu : Jeu, jeuController : JeuController)</text><text fill="#000000" font-family="sans-serif" font-size="14" lengthAdjust="spacing" textLength="73" x="201.46" y="548.6826">+Update()</text></g><!--class MasterMind--><g id="elem_MasterMind"><rect codeLine="113" fill="#F1F1F1" height="50.5938" id="MasterMind" rx="2.5" ry="2.5" style="stroke:#181818;stroke-width:0.5;" width="154" x="930.46" y="7"/><text fill="#000000" font-family="sans-serif" font-size="14" font-weight="bold" lengthAdjust="spacing" textLength="94" x="960.46" y="24.9951">MasterMind</text><line style="stroke:#181818;stroke-width:0.5;" x1="931.46" x2="1083.46" y1="33.2969" y2="33.2969"/><text fill="#000000" font-family="sans-serif" font-size="14" lengthAdjust="spacing" textLength="142" x="936.46" y="50.292">main(args : String[])</text></g><!--link Manche to Jeu--><g id="link_Manche_Jeu"><path codeLine="53" d="M1767.64,633.83 C1771.72,650.4 1775.95,667.6 1780.19,684.85 " fill="none" id="Manche-Jeu" style="stroke:#181818;stroke-width:1.0;"/><polygon fill="none" points="1764.51,621.09,1762.0629,627.8732,1767.3832,632.741,1769.8303,625.9577,1764.51,621.09" style="stroke:#181818;stroke-width:1.0;"/><polygon fill="#181818" points="1783.35,697.71,1785.0866,688.0154,1782.1567,692.8545,1777.3177,689.9247,1783.35,697.71" style="stroke:#181818;stroke-width:1.0;"/><line style="stroke:#181818;stroke-width:1.0;" x1="1782.1567" x2="1780.245" y1="692.8545" y2="685.085"/><text fill="#000000" font-family="sans-serif" font-size="13" lengthAdjust="spacing" textLength="8" x="1753.0399" y="671.7138">1</text><text fill="#000000" font-family="sans-serif" font-size="13" lengthAdjust="spacing" textLength="43" x="1737.5399" y="686.8466">-partie</text></g><!--link Jeu to Color--><g id="link_Jeu_Color"><path codeLine="69" d="M1999.6,949.96 C2111.57,995.24 2261.64,1050.01 2399.46,1081 C2417.33,1085.02 2465.5,1080.04 2481.46,1089 C2518.79,1109.96 2545.1,1153.99 2558.72,1181.66 " fill="none" id="Jeu-Color" style="stroke:#181818;stroke-width:1.0;"/><polygon fill="none" points="1987.51,945.05,1991.5601,951.0163,1998.6252,949.5725,1994.5751,943.6062,1987.51,945.05" style="stroke:#181818;stroke-width:1.0;"/><polygon fill="#181818" points="2564.38,1193.75,2564.1844,1183.9031,2562.259,1189.2222,2556.9399,1187.2968,2564.38,1193.75" style="stroke:#181818;stroke-width:1.0;"/><line style="stroke:#181818;stroke-width:1.0;" x1="2562.259" x2="2558.87" y1="1189.2222" y2="1181.98"/><text fill="#000000" font-family="sans-serif" font-size="13" lengthAdjust="spacing" textLength="7" x="2516.6542" y="1165.3455">*</text><text fill="#000000" font-family="sans-serif" font-size="13" lengthAdjust="spacing" textLength="88" x="2478.1542" y="1180.4783">-couleursPion</text></g><!--link Manche to Color--><g id="link_Manche_Color"><path codeLine="70" d="M1924.02,628.53 C2082.55,739.14 2310.08,910.12 2481.46,1089 C2510.19,1118.99 2538.1,1158.36 2554.53,1182.92 " fill="none" id="Manche-Color" style="stroke:#181818;stroke-width:1.0;"/><polygon fill="none" points="1913.2,621,1915.8391,627.7108,1923.0487,627.8559,1920.4096,621.145,1913.2,621" style="stroke:#181818;stroke-width:1.0;"/><polygon fill="#181818" points="2561.82,1193.98,2560.2003,1184.2652,2559.0656,1189.8071,2553.5237,1188.6723,2561.82,1193.98" style="stroke:#181818;stroke-width:1.0;"/><line style="stroke:#181818;stroke-width:1.0;" x1="2559.0656" x2="2554.665" y1="1189.8071" y2="1183.125"/><text fill="#000000" font-family="sans-serif" font-size="13" lengthAdjust="spacing" textLength="7" x="2647.2851" y="1167.8114">*</text><text fill="#000000" font-family="sans-serif" font-size="13" lengthAdjust="spacing" textLength="137" x="2584.2851" y="1182.9442">-combinaisonSecrete</text></g><!--reverse link JeuPrintStrategy to EasyPrint--><g id="link_JeuPrintStrategy_EasyPrint"><path d="M1438.46,919.71 C1438.46,990.41 1438.46,1125.66 1438.46,1181.23 " fill="none" id="JeuPrintStrategy-backto-EasyPrint" style="stroke:#181818;stroke-width:1.0;stroke-dasharray:7.0,7.0;"/><polygon fill="none" points="1431.46,919.61,1438.46,899.61,1445.46,919.61,1431.46,919.61" style="stroke:#181818;stroke-width:1.0;"/></g><!--reverse link JeuPrintStrategy to ClassicPrint--><g id="link_JeuPrintStrategy_ClassicPrint"><path d="M1482.41,912.74 C1524.53,948.65 1590.13,1003.87 1648.46,1050 C1708.83,1097.74 1781.05,1151.09 1822.56,1181.4 " fill="none" id="JeuPrintStrategy-backto-ClassicPrint" style="stroke:#181818;stroke-width:1.0;stroke-dasharray:7.0,7.0;"/><polygon fill="none" points="1477.61,917.85,1466.95,899.53,1486.7,907.2,1477.61,917.85" style="stroke:#181818;stroke-width:1.0;"/></g><!--reverse link JeuPrintStrategy to NumericPrint--><g id="link_JeuPrintStrategy_NumericPrint"><path d="M1472.4,914.89 C1510.52,956.61 1576.54,1020.1 1648.46,1050 C1820.34,1121.46 1887.73,1033.67 2065.46,1089 C2132.17,1109.77 2201.33,1153.66 2241,1181.39 " fill="none" id="JeuPrintStrategy-backto-NumericPrint" style="stroke:#181818;stroke-width:1.0;stroke-dasharray:7.0,7.0;"/><polygon fill="none" points="1467.05,919.41,1458.97,899.82,1477.51,910.09,1467.05,919.41" style="stroke:#181818;stroke-width:1.0;"/></g><!--link Jeu to JeuPrintStrategy--><g id="link_Jeu_JeuPrintStrategy"><path codeLine="93" d="M1652.37,874 C1649.38,874 1646.4,874 1643.41,874 " fill="none" id="Jeu-JeuPrintStrategy" style="stroke:#181818;stroke-width:1.0;"/><polygon fill="none" points="1665.46,874,1659.46,870,1653.46,874,1659.46,878,1665.46,874" style="stroke:#181818;stroke-width:1.0;"/><polygon fill="#181818" points="1630.19,874,1639.19,878,1635.19,874,1639.19,870,1630.19,874" style="stroke:#181818;stroke-width:1.0;"/><line style="stroke:#181818;stroke-width:1.0;" x1="1635.19" x2="1643.19" y1="874" y2="874"/><text fill="#000000" font-family="sans-serif" font-size="13" lengthAdjust="spacing" textLength="8" x="1667.8909" y="851.523">1</text><text fill="#000000" font-family="sans-serif" font-size="13" lengthAdjust="spacing" textLength="62" x="1642.8909" y="866.6558">-contexte</text></g><!--reverse link JFrame to JeuWindow--><g id="link_JFrame_JeuWindow"><path d="M139.55,534.61 C148.08,559.14 161.6,593.49 178.46,621 C224.6,696.26 292.71,771.87 339.85,820.35 " fill="none" id="JFrame-backto-JeuWindow" style="stroke:#181818;stroke-width:1.0;"/><polygon fill="none" points="132.8,536.51,133.16,515.32,146.09,532.11,132.8,536.51" style="stroke:#181818;stroke-width:1.0;"/></g><!--reverse link JeuObserver to JeuWindow--><g id="link_JeuObserver_JeuWindow"><path d="M1419.12,545.79 C1405.92,571.48 1385.65,602.64 1358.46,621 C1304.64,657.34 1277.73,632.57 1215.46,651 C1195.36,656.95 1191.41,661.54 1171.46,668 C972.63,732.39 740.45,791.54 581.83,829.58 " fill="none" id="JeuObserver-backto-JeuWindow" style="stroke:#181818;stroke-width:1.0;stroke-dasharray:7.0,7.0;"/><polygon fill="none" points="1412.91,542.56,1427.83,527.52,1425.54,548.58,1412.91,542.56" style="stroke:#181818;stroke-width:1.0;"/></g><!--reverse link JeuObserver to JeuTextuelle--><g id="link_JeuObserver_JeuTextuelle"><path d="M1431.66,456.44 C1422.09,403.34 1397.38,318.51 1335.13,284.33 C1301.51,265.88 680.8,271.11 644.8,284.33 C556.29,316.84 477.44,394.96 431.28,448.21 " fill="none" id="JeuObserver-backto-JeuTextuelle" style="stroke:#181818;stroke-width:1.0;stroke-dasharray:7.0,7.0;"/><polygon fill="none" points="1438.6,455.52,1434.81,476.37,1424.77,457.71,1438.6,455.52" style="stroke:#181818;stroke-width:1.0;"/></g><!--link JeuWindow to JeuController--><g id="link_JeuWindow_JeuController"><path codeLine="117" d="M594.79,863.9 C765.15,844.27 999.8,786.54 1117.46,621 C1194.71,512.32 1171.56,442.87 1117.46,321 C1109.82,303.79 1097.57,288.29 1083.97,274.93 " fill="none" id="JeuWindow-JeuController" style="stroke:#181818;stroke-width:1.0;"/><polygon fill="none" points="581.87,865.33,588.273,868.6468,593.7974,864.0121,587.3944,860.6952,581.87,865.33" style="stroke:#181818;stroke-width:1.0;"/><polygon fill="#181818" points="1074.38,266.03,1078.2559,275.0841,1078.0449,269.4312,1083.6979,269.2202,1074.38,266.03" style="stroke:#181818;stroke-width:1.0;"/><line style="stroke:#181818;stroke-width:1.0;" x1="1078.0449" x2="1083.905" y1="269.4312" y2="274.875"/><polygon fill="#000000" points="1174.6546,498.2201,1166.6147,503.3004,1171.1363,507.0559,1174.6546,498.2201" style="stroke:#000000;stroke-width:1.0;"/><text fill="#000000" font-family="sans-serif" font-size="13" lengthAdjust="spacing" textLength="31" x="1180.46" y="506.5669">send</text><text fill="#000000" font-family="sans-serif" font-size="13" lengthAdjust="spacing" textLength="8" x="1096.0896" y="286.2359">1</text><text fill="#000000" font-family="sans-serif" font-size="13" lengthAdjust="spacing" textLength="62" x="1073.0896" y="301.3687">controller</text></g><!--link JeuWindow to Jeu--><g id="link_JeuWindow_Jeu"><path codeLine="118" d="M586.85,816.86 C752.3,771.12 997.7,710.67 1216.46,686 C1243.84,682.91 1250.91,685.55 1278.46,686 C1442.53,688.67 1496.63,633.39 1647.46,698 C1649.43,698.84 1651.4,699.72 1653.35,700.63 " fill="none" id="JeuWindow-Jeu" style="stroke:#181818;stroke-width:1.0;"/><polygon fill="none" points="574.09,820.4,580.9402,822.6526,585.6543,817.1958,578.8041,814.9431,574.09,820.4" style="stroke:#181818;stroke-width:1.0;"/><polygon fill="#181818" points="1665.21,706.59,1658.9602,698.9781,1660.7412,704.3473,1655.372,706.1283,1665.21,706.59" style="stroke:#181818;stroke-width:1.0;"/><line style="stroke:#181818;stroke-width:1.0;" x1="1660.7412" x2="1653.59" y1="704.3473" y2="700.755"/><polygon fill="#000000" points="1226.4306,659.0247,1217.1203,657.083,1217.7571,662.9263,1226.4306,659.0247" style="stroke:#000000;stroke-width:1.0;"/><text fill="#000000" font-family="sans-serif" font-size="13" lengthAdjust="spacing" textLength="47" x="1230.46" y="664.0669">display</text><text fill="#000000" font-family="sans-serif" font-size="13" lengthAdjust="spacing" textLength="8" x="1639.3596" y="680.3989">1</text><text fill="#000000" font-family="sans-serif" font-size="13" lengthAdjust="spacing" textLength="20" x="1637.3596" y="695.5317">jeu</text></g><!--link MasterMind to JeuWindow--><g id="link_MasterMind_JeuWindow"><path codeLine="119" d="M930.25,45.16 C725.96,77.8 180.18,177.19 81.46,321 C6,430.93 23.98,500.69 81.46,621 C123.1,708.14 211.21,774.83 283.21,817.65 " fill="none" id="MasterMind-to-JeuWindow" style="stroke:#181818;stroke-width:1.0;stroke-dasharray:7.0,7.0;"/><polygon fill="#181818" points="287.93,820.44,282.2193,812.4158,283.6262,817.8949,278.1471,819.3019,287.93,820.44" style="stroke:#181818;stroke-width:1.0;"/><text fill="#000000" font-family="sans-serif" font-size="13" lengthAdjust="spacing" textLength="57" x="103.46" y="309.0669">&#171;create&#187;</text></g><!--link MasterMind to JeuController--><g id="link_MasterMind_JeuController"><path codeLine="120" d="M1007.46,58.2 C1007.46,86.46 1007.46,133.46 1007.46,169.46 " fill="none" id="MasterMind-to-JeuController" style="stroke:#181818;stroke-width:1.0;stroke-dasharray:7.0,7.0;"/><polygon fill="#181818" points="1007.46,174.69,1011.46,165.69,1007.46,169.69,1003.46,165.69,1007.46,174.69" style="stroke:#181818;stroke-width:1.0;"/><text fill="#000000" font-family="sans-serif" font-size="13" lengthAdjust="spacing" textLength="57" x="1008.46" y="101.0669">&#171;create&#187;</text></g><!--link MasterMind to Jeu--><g id="link_MasterMind_Jeu"><path codeLine="121" d="M1084.78,39.88 C1327.27,61.65 2065.13,141.78 2206.46,321 C2289.02,425.7 2269.52,503.52 2206.46,621 C2160.86,705.97 2072.6,767.14 1992.62,807.91 " fill="none" id="MasterMind-to-Jeu" style="stroke:#181818;stroke-width:1.0;stroke-dasharray:7.0,7.0;"/><polygon fill="#181818" points="1987.85,810.33,1997.6863,809.8325,1992.3106,808.0711,1994.072,802.6954,1987.85,810.33" style="stroke:#181818;stroke-width:1.0;"/><text fill="#000000" font-family="sans-serif" font-size="13" lengthAdjust="spacing" textLength="57" x="2198.46" y="309.0669">&#171;create&#187;</text></g><!--link JeuObserver to Jeu--><g id="link_JeuObserver_Jeu"><path codeLine="122" d="M1452.94,539.74 C1464.96,564.95 1483.6,597.9 1507.46,621 C1558.49,670.39 1590.44,655.68 1647.46,698 C1649.97,699.86 1652.47,701.75 1654.97,703.67 " fill="none" id="JeuObserver-Jeu" style="stroke:#181818;stroke-width:1.0;"/><polygon fill="#181818" points="1447.42,527.71,1447.5431,537.5581,1449.5076,532.2533,1454.8124,534.2179,1447.42,527.71" style="stroke:#181818;stroke-width:1.0;"/><line style="stroke:#181818;stroke-width:1.0;" x1="1449.5076" x2="1452.845" y1="532.2533" y2="539.53"/><polygon fill="none" points="1665.24,711.73,1662.99,704.8789,1655.8005,704.3208,1658.0505,711.1719,1665.24,711.73" style="stroke:#181818;stroke-width:1.0;"/><polygon fill="#000000" points="1599.3426,662.7168,1594.1707,654.7355,1590.4671,659.2998,1599.3426,662.7168" style="stroke:#000000;stroke-width:1.0;"/><text fill="#000000" font-family="sans-serif" font-size="13" lengthAdjust="spacing" textLength="52" x="1604.46" y="664.0669">observe</text><text fill="#000000" font-family="sans-serif" font-size="13" lengthAdjust="spacing" textLength="7" x="1608.6845" y="718.0506">*</text><text fill="#000000" font-family="sans-serif" font-size="13" lengthAdjust="spacing" textLength="86" x="1571.1845" y="733.1834">jeuObservers</text></g><!--link Manche to MancheObserver--><g id="link_Manche_MancheObserver"><path codeLine="123" d="M1959.87,502 C1986.65,502 2012.54,502 2035.37,502 " fill="none" id="Manche-MancheObserver" style="stroke:#181818;stroke-width:1.0;"/><polygon fill="none" points="1946.57,502,1952.57,506,1958.57,502,1952.57,498,1946.57,502" style="stroke:#181818;stroke-width:1.0;"/><polygon fill="#181818" points="2048.44,502,2039.44,498,2043.44,502,2039.44,506,2048.44,502" style="stroke:#181818;stroke-width:1.0;"/><line style="stroke:#181818;stroke-width:1.0;" x1="2043.44" x2="2035.44" y1="502" y2="502"/><polygon fill="#000000" points="1963.96,490.5664,1973.0051,493.5053,1973.0051,487.6275,1963.96,490.5664" style="stroke:#000000;stroke-width:1.0;"/><text fill="#000000" font-family="sans-serif" font-size="13" lengthAdjust="spacing" textLength="52" x="1977.96" y="495.0669">observe</text><text fill="#000000" font-family="sans-serif" font-size="13" lengthAdjust="spacing" textLength="7" x="1975.5216" y="520.1425">*</text><text fill="#000000" font-family="sans-serif" font-size="13" lengthAdjust="spacing" textLength="118" x="1922.0216" y="535.2753">mancheObservers</text></g><!--link JeuController to Manche--><g id="link_JeuController_Manche"><path codeLine="124" d="M1099.47,226.88 C1202.91,235.81 1373.86,259.34 1507.46,321 C1540.77,336.37 1573.55,357.54 1603.43,379.96 " fill="none" id="JeuController-to-Manche" style="stroke:#181818;stroke-width:1.0;stroke-dasharray:7.0,7.0;"/><polygon fill="#181818" points="1607.43,382.99,1602.6645,374.3709,1603.442,379.974,1597.8389,380.7516,1607.43,382.99" style="stroke:#181818;stroke-width:1.0;"/><text fill="#000000" font-family="sans-serif" font-size="13" lengthAdjust="spacing" textLength="57" x="1482.46" y="309.0669">&#171;create&#187;</text></g><!--link JeuController to MancheController--><g id="link_JeuController_MancheController"><path codeLine="125" d="M985.28,266.1 C962,312.92 925.21,386.89 899.14,439.3 " fill="none" id="JeuController-to-MancheController" style="stroke:#181818;stroke-width:1.0;stroke-dasharray:7.0,7.0;"/><polygon fill="#181818" points="896.81,443.99,904.3966,437.7096,899.0347,439.5122,897.2321,434.1502,896.81,443.99" style="stroke:#181818;stroke-width:1.0;"/><text fill="#000000" font-family="sans-serif" font-size="13" lengthAdjust="spacing" textLength="57" x="970.46" y="309.0669">&#171;create&#187;</text></g><!--link Manche to MancheController--><g id="link_Manche_MancheController"><path codeLine="126" d="M1585.63,375.86 C1560.83,360.74 1534.38,347.63 1507.46,339 C1346.22,287.29 1289.12,291.92 1126.46,339 C1060.56,358.08 995.31,399.56 946.92,435.9 " fill="none" id="Manche-MancheController" style="stroke:#181818;stroke-width:1.0;"/><polygon fill="#181818" points="1596.9,382.93,1591.409,374.7539,1592.6668,380.2691,1587.1516,381.527,1596.9,382.93" style="stroke:#181818;stroke-width:1.0;"/><line style="stroke:#181818;stroke-width:1.0;" x1="1592.6668" x2="1585.89" y1="380.2691" y2="376.02"/><polygon fill="none" points="936.55,443.81,943.747,443.3594,946.0991,436.5426,938.9021,436.9933,936.55,443.81" style="stroke:#181818;stroke-width:1.0;"/><polygon fill="#000000" points="1136.9381,304.0985,1127.6576,302.019,1128.2077,307.871,1136.9381,304.0985" style="stroke:#000000;stroke-width:1.0;"/><text fill="#000000" font-family="sans-serif" font-size="13" lengthAdjust="spacing" textLength="50" x="1140.96" y="309.0669">modifie</text><text fill="#000000" font-family="sans-serif" font-size="13" lengthAdjust="spacing" textLength="8" x="1553.8112" y="356.8394">1</text><text fill="#000000" font-family="sans-serif" font-size="13" lengthAdjust="spacing" textLength="50" x="1536.8112" y="371.9722">Manche</text></g><!--link MancheController to Manche--><g id="link_MancheController_Manche"><path codeLine="128" d="M946.92,435.9 C995.31,399.56 1060.56,358.08 1126.46,339 C1289.12,291.92 1346.22,287.29 1507.46,339 C1534.38,347.63 1560.83,360.74 1585.63,375.86 " fill="none" id="MancheController-Manche" style="stroke:#181818;stroke-width:1.0;"/><polygon fill="none" points="936.55,443.81,943.747,443.3594,946.0991,436.5426,938.9021,436.9933,936.55,443.81" style="stroke:#181818;stroke-width:1.0;"/><polygon fill="#181818" points="1596.9,382.93,1591.409,374.7539,1592.6668,380.2691,1587.1516,381.527,1596.9,382.93" style="stroke:#181818;stroke-width:1.0;"/><line style="stroke:#181818;stroke-width:1.0;" x1="1592.6668" x2="1585.89" y1="380.2691" y2="376.02"/><polygon fill="#000000" points="1136.9381,304.0985,1127.6576,302.019,1128.2077,307.871,1136.9381,304.0985" style="stroke:#000000;stroke-width:1.0;"/><text fill="#000000" font-family="sans-serif" font-size="13" lengthAdjust="spacing" textLength="50" x="1140.96" y="309.0669">modifie</text><text fill="#000000" font-family="sans-serif" font-size="13" lengthAdjust="spacing" textLength="8" x="1612.1628" y="356.8394">1</text><text fill="#000000" font-family="sans-serif" font-size="13" lengthAdjust="spacing" textLength="52" x="1594.1628" y="371.9722">manche</text></g><!--link JeuController to Jeu--><g id="link_JeuController_Jeu"><path codeLine="127" d="M1112.5,239.98 C1173.95,253.02 1243.33,272.34 1263.46,296 C1357.78,406.84 1205.7,513.19 1303.46,621 C1408.7,737.06 1509.76,623.28 1647.46,698 C1649.62,699.17 1651.78,700.38 1653.92,701.62 " fill="none" id="JeuController-Jeu" style="stroke:#181818;stroke-width:1.0;"/><polygon fill="none" points="1099.52,237.29,1104.5882,242.4197,1111.2726,239.7143,1106.2044,234.5846,1099.52,237.29" style="stroke:#181818;stroke-width:1.0;"/><polygon fill="#181818" points="1665.31,708.53,1659.6977,700.4367,1661.0376,705.9325,1655.5418,707.2725,1665.31,708.53" style="stroke:#181818;stroke-width:1.0;"/><line style="stroke:#181818;stroke-width:1.0;" x1="1661.0376" x2="1654.195" y1="705.9325" y2="701.78"/><polygon fill="#000000" points="1312.2647,505.3105,1307.2887,497.2055,1303.4751,501.6782,1312.2647,505.3105" style="stroke:#000000;stroke-width:1.0;"/><text fill="#000000" font-family="sans-serif" font-size="13" lengthAdjust="spacing" textLength="50" x="1317.46" y="506.5669">modifie</text><text fill="#000000" font-family="sans-serif" font-size="13" lengthAdjust="spacing" textLength="8" x="1639.4641" y="713.7862">1</text><text fill="#000000" font-family="sans-serif" font-size="13" lengthAdjust="spacing" textLength="20" x="1637.4641" y="728.919">Jeu</text></g><!--SRC=[lLVTJzim47_FNs7rPUb6o_QAKAHH3GcaCZGOUzZsu2P7CIHsPJkmhkh_lekT3yTn2q8QVQXQt-y-VdVdk-JTdTOhTNHukCefrsMHJrDH7AOvLMgICRgKj8WYzS3uYk9FOWIVjPPiKMeuImM_Od-1VFGXfuBhAxtEWPo8F7EaoXmgD91Mtg8xbW61OgNNf81Y0L95qOgc3tG9P8P6fCXpa9ie8lWnfiavbAw4r9y9kOUI75NYzkn37notYB43aIMFxV-jwsPEUNe7dR8HRHmz7n0NvW0TM8dhOmaS9CYPA1QCKwOmRv1AqF02fJEUiHHKZCdMy4U3PN0fMPLYIJKirmT40zTKiyTAEXEva3z_kwOUGR9RrWiW3gdWpnCXSg3SKUP26-KRh9bW4jfiRRjQtTD7EgLFUkDaq1XrGNEHGUxNqgqWNzWiA8pZ3DakwxGtqaick38SzW6kXQRv3i1rGphiGgL2Ga1Y6Ydk5qVFweB4uq19-j2BXfZ13gqRICVkMPIXk0_LyToDkgh8xX0hXzwUnXltLJgQWKeEi0xVS6d36fPxkDO33ISFuUAx6ZJBaE3NXGA95oOM2sKfDoTZ_rAiNNXpAwflIvw8oIGXeq-_E9dW-DCCHkruSeSCsRoW1VlT-msKne4TREDcD8N77PBq65hqRf8UmxP_BWsbfllxidGuwSRTdF4RhLZGFZQj6o4moj1ucuOw2wzkyOjGHhl16Cgors7MWLUptZR1r60VP9DazBxgWrIKEPHILTqxgaTahsCSf9_21cyKy1Q2lAKfk1tgxgVlgungwBLbfzElUQisq1gwwjr_rn-zlMNfNREjlBssPqFrjkuNgjR60s75AeS2bTH_ykeigkgRfM_kzw8iS2-_bT-s6-r0QgRw27ik6QultDlDshvXyBJfB-qVZ6VYYLJwFCEJKtos0vU2MVNJO6U67jJCMVSePQNUirUxXwtpRheTx5SUX-x4iFDGvnhvb80wUvbu3uAJ09iNad5TleQETrUtKRDK5DxNEMOfic4MbF6OocKrnh30Z2-hhjX6LM6dNJM5MLO4coDjlOqwnzDpBwm41o3w65gnHf35gCkUmMTCuNl6EkeY9DDfGZmBH-Ju6ESTKaiI7xeddDrARX0kgZqs0_U-Ax6gBaKvIOR5homGOV_K1kh9RMmKlR6gxDroOK4xEqavqS-Rc-uGsA_dIFrNbPrc1a2J1bjFAnlvyIIa45drVh0xdBObpeSj4L0E157h5y-4y0y0]--></g></svg>